<?xml version="1.0" encoding="utf-8"?>
<!-- Generator: Adobe Illustrator 16.0.0, SVG Export Plug-In . SVG Version: 6.00 Build 0)  -->
<!DOCTYPE svg PUBLIC "-//W3C//DTD SVG 1.1//EN" "http://www.w3.org/Graphics/SVG/1.1/DTD/svg11.dtd">
<svg version="1.1" id="Ebene_1" xmlns="http://www.w3.org/2000/svg" xmlns:xlink="http://www.w3.org/1999/xlink" x="0px" y="0px"
	 width="1200px" height="400px" viewBox="0 0 1200 400" enable-background="new 0 0 1200 400" xml:space="preserve">
<rect x="230" y="371" opacity="0.2" fill="#F2F2F2" width="14" height="30"/>
<rect x="210" y="387" opacity="0.2" fill="#F2F2F2" width="15" height="14"/>
<rect x="191" y="392" opacity="0.2" fill="#F2F2F2" width="14" height="9"/>
<rect x="171" y="397" opacity="0.2" fill="#F2F2F2" width="15" height="4"/>
<rect x="249" y="353" opacity="0.2" fill="#F2F2F2" width="14" height="48"/>
<rect x="269" y="335" opacity="0.2" fill="#F2F2F2" width="13" height="66"/>
<rect x="288" y="316" opacity="0.2" fill="#F2F2F2" width="14" height="85"/>
<rect x="308" y="300" opacity="0.2" fill="#F2F2F2" width="14" height="101"/>
<rect x="328" y="289" opacity="0.2" fill="#F2F2F2" width="14" height="112"/>
<rect x="348" y="286" opacity="0.2" fill="#F2F2F2" width="14" height="115"/>
<rect x="368" y="286" opacity="0.2" fill="#F2F2F2" width="13" height="115"/>
<rect x="387" y="294" opacity="0.2" fill="#F2F2F2" width="14" height="107"/>
<rect x="407" y="300" opacity="0.2" fill="#F2F2F2" width="13" height="101"/>
<rect x="426" y="306" opacity="0.2" fill="#F2F2F2" width="14" height="95"/>
<rect x="446" y="310" opacity="0.2" fill="#F2F2F2" width="14" height="91"/>
<rect x="466" y="316" opacity="0.2" fill="#F2F2F2" width="14" height="85"/>
<rect x="485" y="320" opacity="0.2" fill="#F2F2F2" width="15" height="81"/>
<rect x="505" y="320" opacity="0.2" fill="#F2F2F2" width="14" height="81"/>
<rect x="524" y="310" opacity="0.2" fill="#F2F2F2" width="15" height="91"/>
<rect x="544" y="294" opacity="0.2" fill="#F2F2F2" width="14" height="107"/>
<rect x="563" y="277" opacity="0.2" fill="#F2F2F2" width="14" height="124"/>
<rect x="583" y="260" opacity="0.2" fill="#F2F2F2" width="13" height="141"/>
<rect x="602" y="243" opacity="0.2" fill="#F2F2F2" width="14" height="158"/>
<rect x="622" y="239" opacity="0.2" fill="#F2F2F2" width="14" height="162"/>
<rect x="642" y="241" opacity="0.2" fill="#F2F2F2" width="14" height="160"/>
<rect x="662" y="249" opacity="0.2" fill="#F2F2F2" width="14" height="152"/>
<rect x="682" y="256" opacity="0.2" fill="#F2F2F2" width="13" height="145"/>
<rect x="701" y="268" opacity="0.2" fill="#F2F2F2" width="14" height="133"/>
<rect x="721" y="277" opacity="0.2" fill="#F2F2F2" width="13" height="124"/>
<rect x="740" y="294" opacity="0.2" fill="#F2F2F2" width="14" height="107"/>
<rect x="760" y="310" opacity="0.2" fill="#F2F2F2" width="14" height="91"/>
<rect x="780" y="329" opacity="0.2" fill="#F2F2F2" width="13" height="72"/>
<rect x="799" y="342" opacity="0.2" fill="#F2F2F2" width="15" height="59"/>
<rect x="819" y="353" opacity="0.2" fill="#F2F2F2" width="14" height="48"/>
<rect x="838" y="361" opacity="0.2" fill="#F2F2F2" width="15" height="40"/>
<rect x="858" y="368" opacity="0.2" fill="#F2F2F2" width="14" height="33"/>
<rect x="877" y="371" opacity="0.2" fill="#F2F2F2" width="14" height="30"/>
<rect x="897" y="376" opacity="0.2" fill="#F2F2F2" width="13" height="25"/>
<rect x="916" y="381" opacity="0.2" fill="#F2F2F2" width="14" height="20"/>
<rect x="936" y="381" opacity="0.2" fill="#F2F2F2" width="14" height="20"/>
<rect x="956" y="381" opacity="0.2" fill="#F2F2F2" width="14" height="20"/>
<rect x="976" y="384" opacity="0.2" fill="#F2F2F2" width="14" height="17"/>
<rect x="996" y="387" opacity="0.2" fill="#F2F2F2" width="13" height="14"/>
<rect x="1015" y="392" opacity="0.2" fill="#F2F2F2" width="14" height="9"/>
<rect x="1035" y="397" opacity="0.2" fill="#F2F2F2" width="13" height="4"/>
</svg>
