<?xml version="1.0" encoding="utf-8"?>
<!-- Generator: Adobe Illustrator 16.0.0, SVG Export Plug-In . SVG Version: 6.00 Build 0)  -->
<!DOCTYPE svg PUBLIC "-//W3C//DTD SVG 1.1//EN" "http://www.w3.org/Graphics/SVG/1.1/DTD/svg11.dtd">
<svg version="1.1" id="Layer_1" xmlns="http://www.w3.org/2000/svg" xmlns:xlink="http://www.w3.org/1999/xlink" x="0px" y="0px"
	 width="369.297px" height="28.104px" viewBox="-171.149 169.908 369.297 28.104"
	 enable-background="new -171.149 169.908 369.297 28.104" xml:space="preserve">
<g>
	<path fill="#0067B1" d="M-147.524,176.279h-16.75v4.125h16.75v5.625h-16.75v9.125h-6.875v-24.5h23.625V176.279z M-117.399,195.154
		h-6.875v-9.143h-12.375v9.143h-6.875v-24.5h6.875v9.744h12.375v-9.744h6.875V195.154z M-91.458,172.275
		c2.041,1.082,3.062,3.062,3.062,5.943c0,3.043-1.019,5.105-3.058,6.188c-2.037,1.082-4.692,1.621-7.972,1.621h-6.473v9.125h-6.875
		v-24.5h13.327C-96.163,170.654-93.5,171.195-91.458,172.275z M-80.024,195.154h-6.125v-6.5h6.125V195.154z M-55.899,183.145
		l-2.955,12.01h-4.92l2.75-12.01l-2.75-12.49h4.92L-55.899,183.145z M-65.524,185.654h-12.101v-5.375h12.101V185.654z
		 M-105.899,175.654v5.375h5.731c2.071,0,3.426-0.225,4.062-0.672s0.955-1.16,0.955-2.141c0-0.977-0.318-1.646-0.955-2.014
		c-0.638-0.367-1.99-0.551-4.062-0.551L-105.899,175.654L-105.899,175.654z M-80.024,177.154h-6.125v-6.5h6.125V177.154z"/>
</g>
<g>
	<path fill="#0067B1" d="M70.668,171.49v2.625h2.857v0.891h-2.857v3.672h-1.109v-8.094h4.125v0.906H70.668z"/>
	<path fill="#0067B1" d="M77.893,178.678c0-0.207,0.002-0.416,0.006-0.623s0.021-0.396,0.051-0.562h-0.021
		c-0.146,0.369-0.396,0.678-0.752,0.926c-0.355,0.246-0.781,0.369-1.279,0.369c-0.496,0-0.896-0.146-1.201-0.441
		s-0.457-0.686-0.457-1.162c0-0.646,0.312-1.15,0.938-1.512c0.627-0.359,1.512-0.539,2.656-0.539v-0.396
		c0-0.418-0.094-0.736-0.281-0.959c-0.188-0.221-0.529-0.332-1.025-0.332c-0.281,0-0.578,0.041-0.896,0.123
		c-0.314,0.082-0.596,0.189-0.836,0.33l-0.227-0.877c0.287-0.119,0.617-0.221,0.988-0.301c0.371-0.078,0.75-0.119,1.135-0.119
		c0.432,0,0.791,0.049,1.074,0.145c0.283,0.098,0.512,0.23,0.684,0.402s0.293,0.379,0.361,0.623c0.066,0.242,0.102,0.51,0.102,0.797
		v2.396c0,0.279,0.002,0.57,0.008,0.875s0.016,0.584,0.023,0.84L77.893,178.678L77.893,178.678z M77.832,175.881
		c-0.496,0-0.906,0.033-1.23,0.098c-0.322,0.064-0.58,0.148-0.771,0.254s-0.328,0.227-0.408,0.361
		c-0.08,0.137-0.119,0.281-0.119,0.436c0,0.266,0.082,0.482,0.246,0.656s0.387,0.26,0.666,0.26c0.24,0,0.459-0.055,0.66-0.162
		c0.197-0.107,0.371-0.254,0.516-0.436c0.143-0.182,0.254-0.387,0.33-0.615c0.074-0.229,0.113-0.459,0.113-0.691L77.832,175.881
		L77.832,175.881z"/>
	<path fill="#0067B1" d="M83.965,178.688c-0.311,0.057-0.619,0.084-0.924,0.084c-0.357,0-0.697-0.049-1.014-0.145
		c-0.316-0.098-0.592-0.254-0.828-0.475c-0.236-0.223-0.424-0.516-0.562-0.883c-0.141-0.367-0.211-0.828-0.211-1.381
		c0-0.48,0.062-0.92,0.188-1.318c0.125-0.4,0.307-0.746,0.547-1.039c0.238-0.291,0.541-0.52,0.904-0.678
		c0.363-0.16,0.787-0.24,1.266-0.24c0.273,0,0.533,0.021,0.781,0.064c0.246,0.045,0.475,0.107,0.684,0.188l-0.205,0.93
		c-0.184-0.08-0.393-0.146-0.629-0.197c-0.234-0.053-0.479-0.078-0.727-0.078c-0.271,0-0.512,0.055-0.719,0.162
		s-0.383,0.262-0.521,0.461c-0.143,0.199-0.246,0.436-0.318,0.707c-0.072,0.27-0.107,0.57-0.107,0.898
		c0,0.285,0.025,0.559,0.078,0.812c0.053,0.256,0.143,0.479,0.271,0.666c0.127,0.188,0.303,0.334,0.521,0.441
		c0.221,0.107,0.494,0.16,0.82,0.16c0.521,0,0.982-0.094,1.393-0.285l0.168,0.9C84.561,178.551,84.277,178.633,83.965,178.688z"/>
	<path fill="#0067B1" d="M89.975,178.678v-3.842c0-0.434-0.07-0.766-0.211-0.998c-0.141-0.23-0.41-0.35-0.812-0.35
		c-0.248,0-0.477,0.062-0.686,0.182c-0.211,0.119-0.389,0.283-0.535,0.492c-0.148,0.207-0.266,0.453-0.352,0.738
		c-0.084,0.283-0.125,0.59-0.125,0.918v2.857h-1.078v-8.768h1.078v2.834c0,0.193-0.008,0.398-0.021,0.619
		c-0.016,0.221-0.041,0.41-0.08,0.57l0.025,0.014c0.176-0.41,0.438-0.734,0.791-0.98c0.352-0.244,0.779-0.367,1.283-0.367
		c0.344,0,0.631,0.053,0.857,0.15c0.229,0.102,0.41,0.236,0.551,0.408c0.143,0.172,0.24,0.375,0.303,0.605
		c0.059,0.232,0.09,0.48,0.09,0.744v4.168h-1.078V178.678L89.975,178.678z"/>
	<path fill="#0067B1" d="M96.875,178.678v-3.842c0-0.434-0.068-0.766-0.209-0.998c-0.143-0.23-0.412-0.35-0.812-0.35
		c-0.248,0-0.477,0.062-0.686,0.182s-0.389,0.283-0.535,0.492c-0.148,0.207-0.268,0.453-0.352,0.738
		c-0.084,0.283-0.125,0.59-0.125,0.918v2.857h-1.078v-8.768h1.078v2.834c0,0.193-0.008,0.398-0.021,0.619
		c-0.016,0.221-0.041,0.41-0.08,0.57l0.023,0.014c0.176-0.41,0.439-0.734,0.793-0.98c0.352-0.244,0.777-0.367,1.281-0.367
		c0.346,0,0.631,0.053,0.857,0.15c0.229,0.102,0.412,0.236,0.553,0.408s0.24,0.375,0.299,0.605c0.062,0.232,0.092,0.48,0.092,0.744
		v4.168h-1.078V178.678L96.875,178.678z"/>
	<path fill="#0067B1" d="M105.023,175.592c0,0.449-0.068,0.867-0.209,1.256s-0.336,0.727-0.588,1.016
		c-0.252,0.287-0.559,0.516-0.92,0.68c-0.359,0.162-0.76,0.244-1.199,0.244c-0.406,0-0.775-0.059-1.104-0.18
		c-0.328-0.119-0.607-0.305-0.84-0.553s-0.412-0.562-0.541-0.943c-0.127-0.379-0.191-0.834-0.191-1.361
		c0-0.441,0.066-0.854,0.199-1.232c0.131-0.379,0.324-0.713,0.576-0.996s0.557-0.51,0.918-0.674
		c0.357-0.164,0.764-0.246,1.213-0.246c0.383,0,0.738,0.055,1.066,0.162s0.611,0.283,0.854,0.521
		c0.242,0.24,0.428,0.553,0.562,0.932C104.955,174.598,105.023,175.055,105.023,175.592z M103.883,175.658
		c0-0.684-0.137-1.211-0.408-1.588c-0.275-0.375-0.688-0.564-1.234-0.564c-0.215,0-0.422,0.043-0.625,0.127
		s-0.381,0.215-0.535,0.393c-0.156,0.176-0.279,0.396-0.371,0.666c-0.09,0.27-0.137,0.588-0.137,0.955
		c0,0.73,0.141,1.283,0.424,1.666c0.281,0.381,0.697,0.568,1.244,0.568c0.223,0,0.434-0.043,0.633-0.131
		c0.197-0.09,0.373-0.225,0.523-0.408c0.148-0.186,0.27-0.416,0.355-0.691C103.84,176.375,103.883,176.043,103.883,175.658z"/>
	<path fill="#0067B1" d="M109.525,178.688c-0.312,0.057-0.621,0.084-0.924,0.084c-0.359,0-0.697-0.049-1.014-0.145
		c-0.316-0.098-0.592-0.254-0.828-0.475c-0.236-0.223-0.424-0.516-0.564-0.883c-0.139-0.367-0.209-0.828-0.209-1.381
		c0-0.48,0.062-0.92,0.188-1.318c0.123-0.4,0.307-0.746,0.545-1.039c0.24-0.291,0.543-0.52,0.906-0.678
		c0.361-0.16,0.783-0.24,1.266-0.24c0.271,0,0.531,0.021,0.779,0.064c0.248,0.045,0.477,0.107,0.686,0.188l-0.205,0.93
		c-0.184-0.08-0.395-0.146-0.629-0.197c-0.236-0.053-0.479-0.078-0.727-0.078c-0.271,0-0.514,0.055-0.721,0.162
		c-0.209,0.107-0.383,0.262-0.52,0.461c-0.143,0.199-0.246,0.436-0.318,0.707c-0.072,0.27-0.107,0.57-0.107,0.898
		c0,0.285,0.025,0.559,0.078,0.812c0.051,0.256,0.143,0.479,0.271,0.666c0.127,0.188,0.301,0.334,0.52,0.441s0.494,0.16,0.82,0.16
		c0.521,0,0.982-0.094,1.393-0.285l0.168,0.9C110.123,178.551,109.836,178.633,109.525,178.688z"/>
	<path fill="#0067B1" d="M115.535,178.678v-3.842c0-0.434-0.07-0.766-0.213-0.998c-0.139-0.23-0.408-0.35-0.811-0.35
		c-0.25,0-0.479,0.062-0.686,0.182c-0.209,0.119-0.389,0.283-0.537,0.492c-0.146,0.207-0.266,0.453-0.35,0.738
		c-0.084,0.283-0.127,0.59-0.127,0.918v2.857h-1.078v-8.768h1.078v2.834c0,0.193-0.008,0.398-0.021,0.619
		c-0.016,0.221-0.041,0.41-0.08,0.57l0.025,0.014c0.176-0.41,0.438-0.734,0.793-0.98c0.352-0.244,0.779-0.367,1.283-0.367
		c0.344,0,0.629,0.053,0.855,0.15c0.23,0.102,0.412,0.236,0.555,0.408c0.139,0.172,0.236,0.375,0.299,0.605
		c0.061,0.232,0.09,0.48,0.09,0.744v4.168h-1.076V178.678L115.535,178.678z"/>
	<path fill="#0067B1" d="M122.123,176.883c0,0.271-0.061,0.523-0.176,0.756c-0.115,0.23-0.281,0.434-0.498,0.604
		s-0.48,0.307-0.793,0.4c-0.312,0.096-0.666,0.145-1.057,0.145c-0.232,0-0.465-0.012-0.697-0.035
		c-0.23-0.023-0.439-0.062-0.625-0.121l0.094-0.961c0.189,0.082,0.402,0.143,0.635,0.184c0.232,0.039,0.459,0.061,0.684,0.061
		c0.383,0,0.693-0.082,0.936-0.246s0.357-0.387,0.357-0.666c0-0.225-0.066-0.396-0.203-0.518s-0.307-0.221-0.516-0.295
		c-0.207-0.076-0.43-0.146-0.664-0.211c-0.236-0.062-0.457-0.156-0.664-0.275s-0.379-0.279-0.516-0.48
		c-0.135-0.199-0.203-0.477-0.203-0.83c0-0.512,0.197-0.938,0.594-1.277c0.396-0.342,0.99-0.512,1.783-0.512
		c0.184,0,0.375,0.01,0.576,0.029c0.199,0.02,0.393,0.049,0.576,0.09l-0.084,0.891c-0.18-0.061-0.365-0.104-0.566-0.127
		c-0.201-0.025-0.4-0.039-0.602-0.039c-0.4,0-0.697,0.078-0.887,0.232c-0.189,0.156-0.281,0.361-0.281,0.617
		c0,0.225,0.066,0.395,0.205,0.51c0.137,0.115,0.309,0.215,0.518,0.293c0.209,0.08,0.436,0.156,0.676,0.229s0.467,0.166,0.676,0.281
		s0.383,0.273,0.52,0.475C122.055,176.279,122.123,176.547,122.123,176.883z"/>
	<path fill="#0067B1" d="M126.746,178.688c-0.312,0.057-0.619,0.084-0.926,0.084c-0.357,0-0.695-0.049-1.014-0.145
		c-0.314-0.098-0.592-0.254-0.828-0.475c-0.232-0.223-0.424-0.516-0.562-0.883c-0.141-0.367-0.211-0.828-0.211-1.381
		c0-0.48,0.062-0.92,0.188-1.318c0.125-0.4,0.307-0.746,0.547-1.039c0.238-0.291,0.541-0.52,0.904-0.678
		c0.363-0.16,0.785-0.24,1.268-0.24c0.27,0,0.531,0.021,0.779,0.064c0.246,0.045,0.475,0.107,0.684,0.188l-0.203,0.93
		c-0.186-0.08-0.395-0.146-0.631-0.197c-0.234-0.053-0.479-0.078-0.725-0.078c-0.271,0-0.514,0.055-0.723,0.162
		c-0.207,0.107-0.381,0.262-0.52,0.461c-0.141,0.199-0.246,0.436-0.316,0.707c-0.072,0.27-0.107,0.57-0.107,0.898
		c0,0.285,0.025,0.559,0.076,0.812c0.055,0.256,0.145,0.479,0.271,0.666c0.129,0.188,0.303,0.334,0.52,0.441
		c0.223,0.107,0.494,0.16,0.822,0.16c0.521,0,0.982-0.094,1.393-0.285l0.168,0.9C127.34,178.551,127.057,178.633,126.746,178.688z"
		/>
	<path fill="#0067B1" d="M132.754,178.678v-3.842c0-0.434-0.068-0.766-0.211-0.998c-0.141-0.23-0.41-0.35-0.811-0.35
		c-0.248,0-0.479,0.062-0.688,0.182s-0.387,0.283-0.533,0.492c-0.148,0.207-0.266,0.453-0.352,0.738
		c-0.084,0.283-0.125,0.59-0.125,0.918v2.857h-1.078v-8.768h1.078v2.834c0,0.193-0.008,0.398-0.021,0.619
		c-0.016,0.221-0.041,0.41-0.08,0.57l0.025,0.014c0.176-0.41,0.438-0.734,0.791-0.98c0.352-0.244,0.777-0.367,1.283-0.367
		c0.344,0,0.631,0.053,0.857,0.15c0.229,0.102,0.41,0.236,0.551,0.408c0.143,0.172,0.24,0.375,0.303,0.605
		c0.059,0.232,0.09,0.48,0.09,0.744v4.168h-1.078v0.004H132.754z"/>
	<path fill="#0067B1" d="M139.67,178.678c0-0.186,0.006-0.395,0.021-0.629c0.016-0.236,0.037-0.447,0.068-0.631h-0.025
		c-0.176,0.406-0.439,0.738-0.795,0.99c-0.354,0.252-0.789,0.377-1.299,0.377c-0.344,0-0.629-0.049-0.854-0.148
		c-0.229-0.102-0.412-0.234-0.553-0.408c-0.141-0.172-0.236-0.373-0.293-0.604c-0.057-0.232-0.084-0.48-0.084-0.746v-4.168h1.078
		v3.842c0,0.434,0.07,0.766,0.215,0.998c0.145,0.23,0.408,0.348,0.797,0.348c0.246,0,0.475-0.061,0.68-0.18
		c0.207-0.121,0.387-0.285,0.537-0.492c0.148-0.209,0.268-0.453,0.352-0.738c0.082-0.283,0.125-0.59,0.125-0.918v-2.857h1.078v5.969
		h-1.047v-0.004H139.67z"/>
	<path fill="#0067B1" d="M142.758,178.678v-8.768h1.078v8.768H142.758z"/>
	<path fill="#0067B1" d="M150.393,175.109c0,0.129-0.014,0.312-0.037,0.553h-3.898c-0.023,0.787,0.123,1.357,0.443,1.715
		s0.803,0.535,1.441,0.535c0.289,0,0.578-0.029,0.871-0.09s0.568-0.148,0.836-0.271l0.156,0.863
		c-0.307,0.119-0.633,0.213-0.979,0.275c-0.348,0.062-0.709,0.096-1.086,0.096c-0.912,0-1.605-0.246-2.082-0.738
		s-0.713-1.268-0.713-2.324c0-0.447,0.059-0.861,0.18-1.242c0.119-0.383,0.293-0.711,0.52-0.992
		c0.229-0.279,0.506-0.498,0.832-0.654c0.328-0.156,0.703-0.234,1.127-0.234c0.416,0,0.775,0.066,1.08,0.199
		s0.553,0.312,0.742,0.541c0.191,0.229,0.334,0.494,0.426,0.799C150.348,174.441,150.393,174.766,150.393,175.109z M148.947,173.805
		c-0.238-0.271-0.57-0.408-0.996-0.408c-0.393,0-0.719,0.137-0.979,0.408c-0.262,0.271-0.424,0.637-0.486,1.092h2.797
		C149.299,174.441,149.188,174.076,148.947,173.805z"/>
	<path fill="#0067B1" d="M159.479,172.906c0,0.398-0.078,0.764-0.232,1.09c-0.156,0.326-0.371,0.611-0.646,0.85
		c-0.277,0.24-0.607,0.428-0.99,0.559c-0.385,0.131-0.805,0.195-1.262,0.195c-0.104,0-0.211,0-0.324,0
		c-0.104,0-0.211-0.01-0.322-0.029v3.107h-1.109v-8.094c0.305-0.016,0.621-0.027,0.949-0.035s0.678-0.012,1.045-0.012
		c0.938,0,1.654,0.215,2.15,0.641C159.23,171.604,159.479,172.182,159.479,172.906z M158.338,173.014
		c0-0.502-0.148-0.893-0.449-1.162c-0.305-0.271-0.773-0.408-1.42-0.408c-0.15,0-0.293,0-0.422,0c-0.119,0-0.234,0.006-0.35,0.018
		v3.188c0.104,0.016,0.213,0.025,0.326,0.033c0.111,0.01,0.225,0.014,0.338,0.014c0.602-0.008,1.082-0.162,1.439-0.461
		C158.16,173.934,158.338,173.525,158.338,173.014z"/>
	<path fill="#0067B1" d="M165.646,175.592c0,0.449-0.068,0.867-0.209,1.256s-0.336,0.727-0.588,1.016
		c-0.252,0.287-0.559,0.516-0.92,0.68c-0.359,0.162-0.76,0.244-1.199,0.244c-0.408,0-0.775-0.059-1.104-0.18
		c-0.328-0.119-0.607-0.305-0.84-0.553s-0.412-0.562-0.541-0.943c-0.127-0.379-0.191-0.834-0.191-1.361
		c0-0.441,0.066-0.854,0.199-1.232c0.131-0.379,0.324-0.713,0.576-0.996s0.557-0.51,0.918-0.674
		c0.357-0.164,0.764-0.246,1.213-0.246c0.383,0,0.738,0.055,1.066,0.162s0.611,0.283,0.854,0.521
		c0.242,0.24,0.428,0.553,0.562,0.932C165.578,174.598,165.646,175.055,165.646,175.592z M164.506,175.658
		c0-0.684-0.137-1.211-0.408-1.588c-0.275-0.375-0.688-0.564-1.234-0.564c-0.215,0-0.422,0.043-0.625,0.127
		s-0.381,0.215-0.535,0.393c-0.156,0.176-0.279,0.396-0.371,0.666c-0.09,0.27-0.137,0.588-0.137,0.955
		c0,0.73,0.141,1.283,0.424,1.666c0.281,0.381,0.697,0.568,1.244,0.568c0.223,0,0.434-0.043,0.633-0.131
		c0.197-0.09,0.373-0.225,0.523-0.408c0.148-0.186,0.27-0.416,0.355-0.691C164.463,176.375,164.506,176.043,164.506,175.658z"/>
	<path fill="#0067B1" d="M169.598,178.736c-0.217,0.021-0.422,0.035-0.611,0.035c-0.305,0-0.561-0.031-0.762-0.098
		c-0.203-0.062-0.367-0.168-0.492-0.312c-0.123-0.145-0.211-0.33-0.264-0.559s-0.076-0.502-0.076-0.82v-3.434h-1.227v-0.844h1.227
		v-1.934l1.076-0.303v2.234h1.668v0.844h-1.668v3.049c0,0.248,0.014,0.453,0.035,0.613c0.023,0.158,0.07,0.287,0.141,0.383
		c0.066,0.098,0.154,0.162,0.264,0.199c0.107,0.035,0.246,0.053,0.414,0.053c0.27,0,0.521-0.029,0.756-0.096l0.105,0.887
		C170.008,178.68,169.812,178.713,169.598,178.736z"/>
	<path fill="#0067B1" d="M175.078,176.883c0,0.271-0.059,0.523-0.176,0.756c-0.115,0.23-0.281,0.434-0.498,0.604
		c-0.217,0.172-0.479,0.307-0.793,0.4c-0.312,0.096-0.664,0.145-1.057,0.145c-0.232,0-0.465-0.012-0.697-0.035
		c-0.23-0.023-0.439-0.062-0.625-0.121l0.094-0.961c0.191,0.082,0.402,0.143,0.635,0.184c0.23,0.039,0.461,0.061,0.684,0.061
		c0.383,0,0.695-0.082,0.934-0.246c0.24-0.164,0.359-0.387,0.359-0.666c0-0.225-0.066-0.396-0.203-0.518
		c-0.135-0.121-0.307-0.221-0.516-0.295c-0.207-0.076-0.428-0.146-0.664-0.211c-0.234-0.062-0.457-0.156-0.664-0.275
		s-0.379-0.279-0.516-0.48c-0.137-0.199-0.203-0.477-0.203-0.83c0-0.512,0.197-0.938,0.596-1.277
		c0.395-0.342,0.988-0.512,1.781-0.512c0.184,0,0.377,0.01,0.576,0.029s0.393,0.049,0.574,0.09l-0.084,0.891
		c-0.176-0.061-0.363-0.104-0.564-0.127c-0.199-0.025-0.4-0.039-0.604-0.039c-0.398,0-0.693,0.078-0.885,0.232
		c-0.188,0.156-0.283,0.361-0.283,0.617c0,0.225,0.068,0.395,0.205,0.51c0.139,0.115,0.312,0.215,0.521,0.293
		c0.209,0.08,0.434,0.156,0.674,0.229c0.242,0.072,0.467,0.166,0.676,0.281s0.381,0.273,0.52,0.475
		C175.008,176.279,175.078,176.547,175.078,176.883z"/>
	<path fill="#0067B1" d="M180.287,178.678c0-0.168,0.006-0.367,0.02-0.602c0.014-0.23,0.041-0.436,0.082-0.609l-0.023-0.014
		c-0.17,0.408-0.428,0.732-0.773,0.975c-0.348,0.24-0.758,0.357-1.23,0.357c-0.734,0-1.285-0.25-1.648-0.75
		c-0.365-0.5-0.547-1.186-0.547-2.057c0-0.521,0.07-0.988,0.217-1.404c0.145-0.416,0.35-0.77,0.617-1.057
		c0.27-0.287,0.594-0.508,0.973-0.66c0.381-0.152,0.807-0.229,1.279-0.229c0.16,0,0.32,0.008,0.484,0.021
		c0.164,0.012,0.34,0.025,0.521,0.043v-2.781h1.078v8.766H180.287L180.287,178.678z M180.254,173.607
		c-0.184-0.049-0.361-0.082-0.539-0.104c-0.176-0.021-0.35-0.031-0.518-0.031c-0.287,0-0.547,0.047-0.779,0.135
		c-0.23,0.088-0.43,0.229-0.594,0.42s-0.293,0.439-0.385,0.746c-0.092,0.303-0.141,0.672-0.141,1.104
		c0,0.648,0.107,1.146,0.318,1.496c0.213,0.35,0.547,0.521,1.002,0.521c0.273,0,0.512-0.07,0.715-0.217
		c0.205-0.145,0.375-0.324,0.512-0.547c0.137-0.221,0.236-0.465,0.307-0.738c0.068-0.271,0.102-0.539,0.102-0.805V173.607
		L180.254,173.607z"/>
	<path fill="#0067B1" d="M186.564,178.678c0-0.207,0-0.416,0.004-0.623s0.021-0.396,0.055-0.562H186.6
		c-0.145,0.369-0.396,0.678-0.752,0.926c-0.355,0.246-0.783,0.369-1.279,0.369c-0.498,0-0.896-0.146-1.203-0.441
		c-0.305-0.295-0.455-0.686-0.455-1.162c0-0.646,0.312-1.15,0.938-1.512c0.627-0.359,1.512-0.539,2.656-0.539v-0.396
		c0-0.418-0.096-0.736-0.281-0.959c-0.189-0.221-0.531-0.332-1.027-0.332c-0.279,0-0.578,0.041-0.896,0.123
		c-0.314,0.082-0.594,0.189-0.834,0.33l-0.229-0.877c0.289-0.119,0.619-0.221,0.99-0.301c0.373-0.078,0.75-0.119,1.135-0.119
		c0.434,0,0.789,0.049,1.074,0.145c0.283,0.098,0.512,0.23,0.684,0.402c0.174,0.172,0.291,0.379,0.359,0.623
		c0.068,0.242,0.104,0.51,0.104,0.797v2.396c0,0.279,0.004,0.57,0.008,0.875c0.006,0.305,0.014,0.584,0.023,0.84L186.564,178.678
		L186.564,178.678z M186.502,175.881c-0.496,0-0.904,0.033-1.229,0.098s-0.582,0.148-0.771,0.254
		c-0.191,0.105-0.328,0.227-0.408,0.361c-0.08,0.137-0.119,0.281-0.119,0.436c0,0.266,0.08,0.482,0.244,0.656s0.387,0.26,0.666,0.26
		c0.24,0,0.461-0.055,0.66-0.162c0.197-0.107,0.371-0.254,0.516-0.436c0.146-0.182,0.254-0.387,0.33-0.615s0.113-0.459,0.113-0.691
		L186.502,175.881L186.502,175.881z"/>
	<path fill="#0067B1" d="M197.066,178.678v-3.83c0-0.408-0.062-0.736-0.191-0.984c-0.127-0.248-0.389-0.373-0.777-0.373
		c-0.217,0-0.424,0.057-0.623,0.162c-0.201,0.107-0.379,0.266-0.533,0.469c-0.156,0.205-0.281,0.453-0.373,0.744
		c-0.092,0.293-0.137,0.619-0.137,0.98v2.834h-1.078v-3.83c0-0.191-0.012-0.369-0.037-0.533c-0.021-0.164-0.07-0.309-0.145-0.428
		c-0.072-0.121-0.172-0.217-0.299-0.289c-0.129-0.07-0.293-0.107-0.494-0.107c-0.232,0-0.449,0.061-0.648,0.176
		c-0.201,0.115-0.377,0.277-0.529,0.486c-0.15,0.207-0.271,0.455-0.359,0.744c-0.088,0.287-0.133,0.604-0.133,0.947v2.834h-1.078
		v-5.969h1.049c0,0.186-0.008,0.395-0.021,0.631c-0.014,0.234-0.041,0.443-0.082,0.629l0.023,0.014
		c0.178-0.426,0.447-0.762,0.814-1.01c0.363-0.248,0.787-0.373,1.27-0.373c0.312,0,0.574,0.049,0.783,0.146
		c0.209,0.096,0.375,0.213,0.5,0.348c0.125,0.137,0.213,0.285,0.266,0.445c0.053,0.158,0.086,0.301,0.104,0.42
		c0.062-0.145,0.15-0.295,0.264-0.451c0.111-0.154,0.252-0.301,0.42-0.438s0.363-0.248,0.588-0.336s0.479-0.133,0.768-0.133
		c0.566,0,1.006,0.154,1.312,0.469c0.309,0.312,0.461,0.809,0.461,1.49v4.117h-1.08v-0.002H197.066z"/>
</g>
<g>
	<path fill="#0067B1" d="M-11.434,192.086c-0.2,1.062-0.609,1.844-1.23,2.34s-1.442,0.744-2.467,0.744
		c-0.594,0-1.069-0.076-1.43-0.229c-0.359-0.15-0.631-0.361-0.812-0.631c-0.182-0.268-0.284-0.58-0.312-0.936
		s-0.002-0.738,0.078-1.146l1-5.279h1.077l-1.016,5.332c-0.12,0.646-0.068,1.141,0.155,1.477c0.225,0.336,0.695,0.504,1.414,0.504
		c0.344,0,0.65-0.039,0.923-0.119c0.271-0.08,0.512-0.211,0.72-0.391c0.207-0.18,0.381-0.416,0.521-0.707
		c0.141-0.293,0.25-0.65,0.33-1.076l0.952-5.02h1.062L-11.434,192.086z"/>
	<path fill="#0067B1" d="M-5.248,195.043h-1.062l0.733-3.812c0.089-0.473,0.091-0.812,0.007-1.025
		c-0.084-0.211-0.262-0.316-0.532-0.316c-0.278,0-0.557,0.129-0.831,0.391c-0.274,0.26-0.532,0.58-0.771,0.965
		c-0.238,0.385-0.446,0.799-0.622,1.24c-0.176,0.443-0.299,0.852-0.371,1.217l-0.254,1.344h-1.062l0.605-3.111
		c0.009-0.047,0.025-0.145,0.056-0.287c0.027-0.145,0.062-0.316,0.098-0.516c0.035-0.201,0.074-0.412,0.114-0.631
		c0.041-0.221,0.079-0.43,0.115-0.625s0.068-0.365,0.097-0.51c0.028-0.146,0.046-0.24,0.056-0.289h1.047
		c-0.041,0.201-0.108,0.482-0.206,0.85c-0.098,0.363-0.25,0.869-0.459,1.51h0.022c0.145-0.312,0.311-0.615,0.497-0.916
		c0.188-0.301,0.396-0.562,0.629-0.793c0.23-0.227,0.483-0.41,0.756-0.551c0.271-0.141,0.562-0.209,0.875-0.209
		c0.551,0,0.924,0.182,1.119,0.545c0.196,0.363,0.238,0.855,0.126,1.479L-5.248,195.043z"/>
	<path fill="#0067B1" d="M-2.196,195.043h-1.062l1.141-5.969h1.062L-2.196,195.043z M-0.523,187.143
		c0,0.217-0.074,0.395-0.224,0.535c-0.148,0.141-0.318,0.209-0.514,0.209c-0.209,0-0.375-0.062-0.5-0.191
		c-0.124-0.127-0.188-0.285-0.188-0.469c0-0.217,0.074-0.396,0.224-0.535c0.148-0.141,0.323-0.209,0.523-0.209
		c0.201,0,0.363,0.064,0.488,0.197C-0.585,186.811-0.523,186.967-0.523,187.143z"/>
	<path fill="#0067B1" d="M2.211,195.043H1.103l-1.062-5.969h1.141l0.561,3.506c0.064,0.395,0.109,0.777,0.135,1.154h0.012
		l2.514-4.912l1,0.35L2.211,195.043z"/>
	<path fill="#0067B1" d="M10.469,190.324c0,1.301-1.292,1.998-3.877,2.094c-0.016,0.09-0.029,0.199-0.042,0.334
		c-0.012,0.133-0.019,0.256-0.019,0.367c0,0.234,0.021,0.428,0.066,0.576c0.044,0.148,0.116,0.268,0.217,0.355
		c0.101,0.09,0.232,0.15,0.397,0.188s0.367,0.055,0.607,0.055c0.281,0,0.565-0.031,0.855-0.092c0.29-0.062,0.562-0.146,0.82-0.252
		l0.036,0.834c-0.305,0.119-0.629,0.211-0.973,0.273c-0.345,0.062-0.712,0.096-1.104,0.096c-0.688,0-1.194-0.152-1.519-0.457
		c-0.323-0.305-0.485-0.797-0.485-1.479c0-0.578,0.078-1.125,0.233-1.641c0.155-0.518,0.376-0.969,0.659-1.357
		c0.284-0.389,0.627-0.693,1.025-0.92c0.399-0.225,0.848-0.336,1.344-0.336c0.32,0,0.59,0.039,0.811,0.113
		c0.221,0.076,0.398,0.178,0.54,0.303c0.141,0.125,0.242,0.27,0.307,0.434C10.438,189.979,10.469,190.148,10.469,190.324z
		 M9.391,190.451c0-0.217-0.074-0.383-0.224-0.5c-0.148-0.115-0.343-0.174-0.583-0.174c-0.241,0-0.46,0.047-0.656,0.145
		c-0.195,0.096-0.372,0.229-0.528,0.396c-0.156,0.17-0.291,0.365-0.402,0.59c-0.112,0.227-0.205,0.463-0.277,0.711
		c0.932-0.039,1.609-0.154,2.034-0.342C9.178,191.09,9.391,190.814,9.391,190.451z"/>
	<path fill="#0067B1" d="M15.072,190.01c-0.275-0.08-0.551-0.01-0.82,0.211c-0.27,0.221-0.521,0.52-0.755,0.895
		c-0.234,0.377-0.439,0.797-0.617,1.262c-0.177,0.465-0.306,0.904-0.386,1.32l-0.254,1.346h-1.062l0.605-3.111
		c0.09-0.479,0.179-0.955,0.268-1.428c0.09-0.475,0.179-0.949,0.268-1.43h1.031c-0.049,0.256-0.119,0.557-0.211,0.9
		c-0.094,0.344-0.229,0.775-0.404,1.297l0.023,0.012c0.167-0.359,0.338-0.695,0.514-1.004c0.175-0.309,0.362-0.566,0.565-0.773
		c0.203-0.209,0.423-0.363,0.664-0.463c0.236-0.1,0.5-0.125,0.787-0.078L15.072,190.01z"/>
	<path fill="#0067B1" d="M18.973,189.922c-0.289-0.096-0.592-0.145-0.9-0.145c-0.395,0-0.689,0.084-0.889,0.248
		c-0.201,0.164-0.303,0.375-0.303,0.631c0,0.16,0.045,0.303,0.135,0.428c0.088,0.125,0.197,0.242,0.336,0.354
		c0.135,0.111,0.279,0.229,0.438,0.344c0.156,0.115,0.303,0.242,0.438,0.377c0.137,0.137,0.248,0.289,0.336,0.457
		s0.133,0.365,0.133,0.59c0,0.248-0.055,0.49-0.162,0.729c-0.107,0.236-0.271,0.445-0.484,0.625
		c-0.217,0.182-0.486,0.324-0.809,0.434c-0.318,0.107-0.691,0.162-1.115,0.162c-0.4,0-0.742-0.025-1.021-0.078l0.193-0.979
		c0.318,0.111,0.646,0.168,0.977,0.168c0.396,0,0.711-0.078,0.953-0.234c0.24-0.154,0.361-0.391,0.361-0.703
		c0-0.158-0.045-0.299-0.133-0.42c-0.09-0.119-0.201-0.232-0.34-0.342c-0.137-0.109-0.281-0.217-0.436-0.324
		c-0.152-0.107-0.299-0.23-0.438-0.365c-0.137-0.137-0.25-0.293-0.338-0.471c-0.088-0.176-0.133-0.383-0.133-0.623
		c0-0.258,0.051-0.496,0.15-0.715c0.1-0.221,0.25-0.412,0.451-0.576c0.197-0.164,0.447-0.293,0.744-0.385
		c0.297-0.094,0.639-0.139,1.021-0.139c0.207,0,0.393,0.008,0.553,0.025c0.16,0.02,0.316,0.041,0.471,0.066L18.973,189.922z"/>
	<path fill="#0067B1" d="M21.002,195.043h-1.062l1.143-5.969h1.062L21.002,195.043z M22.672,187.143
		c0,0.217-0.072,0.395-0.223,0.535c-0.148,0.141-0.32,0.209-0.514,0.209c-0.209,0-0.375-0.062-0.5-0.191
		c-0.123-0.127-0.188-0.285-0.188-0.469c0-0.217,0.074-0.396,0.223-0.535c0.15-0.141,0.322-0.209,0.523-0.209
		s0.363,0.064,0.488,0.197C22.609,186.811,22.672,186.967,22.672,187.143z"/>
	<path fill="#0067B1" d="M26.881,189.918h-1.613l-0.596,3.121c-0.088,0.465-0.094,0.775-0.018,0.938
		c0.076,0.16,0.26,0.24,0.555,0.24c0.168,0,0.316-0.008,0.447-0.023c0.131-0.018,0.256-0.041,0.375-0.074l-0.072,0.898
		c-0.176,0.041-0.359,0.07-0.557,0.092c-0.195,0.02-0.381,0.029-0.559,0.029c-0.305,0-0.553-0.039-0.75-0.113
		c-0.193-0.076-0.344-0.191-0.441-0.35c-0.1-0.154-0.156-0.355-0.168-0.6c-0.014-0.244,0.016-0.533,0.078-0.871l0.641-3.285h-1.219
		l0.17-0.846h1.205l0.375-1.932l1.107-0.252l-0.418,2.184h1.621L26.881,189.918z"/>
	<path fill="#0067B1" d="M30.691,193.908c-0.746,1.324-1.494,2.357-2.246,3.102c-0.721,0.721-1.438,1.08-2.146,1.08
		c-0.152,0-0.301-0.004-0.445-0.018c-0.143-0.01-0.273-0.031-0.395-0.061l0.18-0.98c0.23,0.08,0.484,0.121,0.756,0.121
		c0.207,0,0.428-0.061,0.66-0.182c0.23-0.119,0.451-0.287,0.66-0.504c0.229-0.256,0.4-0.529,0.51-0.82
		c0.107-0.293,0.162-0.654,0.162-1.088c0-0.799-0.078-1.672-0.234-2.615c-0.154-0.945-0.369-1.9-0.641-2.869h1.203
		c0.096,0.385,0.186,0.787,0.27,1.207s0.156,0.834,0.217,1.242c0.061,0.406,0.105,0.803,0.139,1.182
		c0.033,0.381,0.049,0.73,0.049,1.053c0,0.111-0.01,0.232-0.027,0.365s-0.039,0.258-0.064,0.379h0.012
		c0.24-0.416,0.471-0.838,0.691-1.266c0.219-0.43,0.439-0.873,0.66-1.332c0.223-0.459,0.443-0.941,0.67-1.445
		c0.225-0.504,0.451-1.043,0.686-1.619l1,0.297C32.211,190.992,31.436,192.584,30.691,193.908z"/>
	<path fill="#0067B1" d="M41.459,191.115c0,0.617-0.1,1.174-0.295,1.67s-0.455,0.922-0.779,1.273
		c-0.322,0.352-0.695,0.623-1.113,0.811c-0.42,0.189-0.854,0.283-1.303,0.283c-0.75,0-1.303-0.184-1.654-0.547
		s-0.525-0.891-0.525-1.58c0-0.592,0.088-1.139,0.264-1.633c0.176-0.498,0.42-0.926,0.73-1.287c0.312-0.361,0.678-0.641,1.098-0.842
		c0.42-0.199,0.873-0.299,1.359-0.299c0.395,0,0.729,0.053,1.01,0.154c0.277,0.105,0.51,0.254,0.688,0.445
		c0.18,0.193,0.312,0.42,0.396,0.686C41.416,190.516,41.459,190.803,41.459,191.115z M40.316,191.232
		c0-0.441-0.102-0.779-0.305-1.014c-0.201-0.23-0.518-0.35-0.947-0.35c-0.326,0-0.621,0.084-0.889,0.254
		c-0.266,0.168-0.494,0.393-0.688,0.668c-0.189,0.277-0.338,0.594-0.439,0.951c-0.104,0.355-0.154,0.725-0.154,1.102
		c0,0.451,0.096,0.793,0.287,1.029c0.189,0.236,0.512,0.355,0.965,0.355c0.287,0,0.562-0.074,0.822-0.223
		c0.262-0.148,0.492-0.355,0.691-0.621c0.197-0.266,0.355-0.582,0.477-0.951C40.256,192.066,40.316,191.666,40.316,191.232z"/>
	<path fill="#0067B1" d="M47.176,187.195c-0.135-0.041-0.275-0.07-0.426-0.09c-0.146-0.021-0.285-0.031-0.414-0.031
		c-0.432,0-0.77,0.125-1.02,0.375c-0.25,0.248-0.42,0.654-0.518,1.217l-0.07,0.41h1.619l-0.182,0.844h-1.605l-1.025,5.424
		c-0.186,0.977-0.508,1.68-0.965,2.105c-0.457,0.43-1.051,0.643-1.781,0.643c-0.369,0-0.715-0.037-1.035-0.107l0.266-0.918
		c0.137,0.041,0.277,0.068,0.432,0.09c0.152,0.021,0.289,0.031,0.408,0.031c0.217,0,0.41-0.031,0.578-0.092s0.314-0.158,0.441-0.299
		c0.129-0.141,0.24-0.326,0.336-0.559c0.1-0.23,0.18-0.523,0.242-0.875l1.041-5.443h-1.213l0.18-0.844h1.189l0.084-0.418
		c0.145-0.822,0.438-1.436,0.877-1.838c0.441-0.4,1.051-0.604,1.828-0.604c0.328,0,0.66,0.037,0.998,0.105L47.176,187.195z"/>
	<path fill="#0067B1" d="M53.922,195.043l-0.293-1.891h-3.393l-1.02,1.891h-1.141l4.422-8.094h1.203l1.375,8.094H53.922z
		 M52.996,189.305c-0.033-0.186-0.061-0.373-0.078-0.564c-0.021-0.193-0.039-0.379-0.057-0.557h-0.014
		c-0.08,0.17-0.162,0.35-0.25,0.537c-0.09,0.188-0.186,0.375-0.289,0.561l-1.617,3.014h2.814L52.996,189.305z"/>
	<path fill="#0067B1" d="M61.854,190.773c0,0.551-0.074,1.086-0.223,1.605s-0.373,0.98-0.678,1.389
		c-0.307,0.406-0.691,0.734-1.164,0.982c-0.473,0.246-1.035,0.371-1.691,0.371c-0.287,0-0.568-0.021-0.84-0.062l-0.545,2.953H55.65
		l1.158-6.08c0.008-0.047,0.025-0.145,0.053-0.287c0.029-0.145,0.062-0.312,0.098-0.512c0.035-0.195,0.072-0.404,0.111-0.629
		c0.041-0.225,0.078-0.436,0.113-0.631c0.037-0.195,0.068-0.367,0.096-0.512c0.029-0.145,0.049-0.238,0.057-0.289h1.051
		c-0.023,0.129-0.055,0.266-0.09,0.41c-0.035,0.146-0.078,0.312-0.131,0.5c-0.053,0.189-0.111,0.404-0.186,0.646
		c-0.068,0.24-0.158,0.521-0.26,0.844l0.023,0.012c0.15-0.352,0.322-0.68,0.516-0.982c0.193-0.305,0.404-0.57,0.639-0.799
		c0.232-0.229,0.484-0.408,0.756-0.541c0.271-0.131,0.562-0.197,0.865-0.197c0.434,0,0.764,0.145,0.99,0.432
		C61.738,189.684,61.854,190.143,61.854,190.773z M60.775,190.975c0-0.391-0.057-0.668-0.17-0.836
		c-0.109-0.168-0.262-0.252-0.443-0.252c-0.188,0-0.373,0.062-0.566,0.186c-0.193,0.125-0.379,0.285-0.555,0.484
		c-0.178,0.199-0.35,0.432-0.514,0.693c-0.166,0.262-0.312,0.533-0.445,0.811c-0.135,0.279-0.244,0.559-0.338,0.838
		c-0.094,0.277-0.162,0.533-0.211,0.764l-0.098,0.455c0.129,0.039,0.273,0.074,0.436,0.102c0.16,0.027,0.307,0.043,0.436,0.043
		c0.441,0,0.816-0.104,1.127-0.305c0.309-0.203,0.564-0.465,0.766-0.783c0.199-0.318,0.348-0.674,0.439-1.064
		C60.729,191.721,60.775,191.342,60.775,190.975z"/>
	<path fill="#0067B1" d="M68.309,190.773c0,0.551-0.074,1.086-0.221,1.605c-0.148,0.52-0.375,0.98-0.68,1.389
		c-0.305,0.406-0.691,0.734-1.162,0.982c-0.475,0.246-1.037,0.371-1.691,0.371c-0.289,0-0.568-0.021-0.842-0.062l-0.545,2.953
		h-1.062l1.158-6.08c0.008-0.047,0.027-0.145,0.055-0.287c0.029-0.145,0.061-0.312,0.098-0.512c0.035-0.195,0.07-0.404,0.111-0.629
		c0.039-0.225,0.078-0.436,0.113-0.631s0.068-0.367,0.096-0.512s0.047-0.238,0.055-0.289h1.051c-0.023,0.129-0.053,0.266-0.088,0.41
		c-0.037,0.146-0.08,0.312-0.131,0.5c-0.053,0.189-0.113,0.404-0.186,0.646c-0.072,0.24-0.158,0.521-0.262,0.844l0.023,0.012
		c0.15-0.352,0.324-0.68,0.518-0.982c0.189-0.305,0.404-0.57,0.637-0.799s0.484-0.408,0.758-0.541
		c0.271-0.131,0.562-0.197,0.865-0.197c0.434,0,0.762,0.145,0.99,0.432S68.309,190.143,68.309,190.773z M67.23,190.975
		c0-0.391-0.057-0.668-0.168-0.836c-0.113-0.168-0.262-0.252-0.445-0.252s-0.373,0.062-0.566,0.186
		c-0.191,0.125-0.377,0.285-0.555,0.484s-0.348,0.432-0.514,0.693c-0.164,0.262-0.312,0.533-0.443,0.811
		c-0.135,0.279-0.246,0.559-0.34,0.838c-0.092,0.277-0.16,0.533-0.211,0.764l-0.096,0.455c0.127,0.039,0.271,0.074,0.436,0.102
		c0.158,0.027,0.305,0.043,0.434,0.043c0.441,0,0.818-0.104,1.127-0.305c0.311-0.203,0.564-0.465,0.766-0.783
		s0.35-0.674,0.439-1.064C67.186,191.721,67.23,191.342,67.23,190.975z"/>
	<path fill="#0067B1" d="M70.188,195.043h-1.062l1.672-8.766h1.062L70.188,195.043z"/>
	<path fill="#0067B1" d="M73.234,195.043h-1.062l1.143-5.969h1.061L73.234,195.043z M74.906,187.143
		c0,0.217-0.072,0.395-0.223,0.535c-0.146,0.141-0.318,0.209-0.512,0.209c-0.209,0-0.375-0.062-0.5-0.191
		c-0.125-0.127-0.188-0.285-0.188-0.469c0-0.217,0.074-0.396,0.223-0.535c0.148-0.141,0.324-0.209,0.525-0.209
		c0.199,0,0.361,0.064,0.486,0.197C74.844,186.811,74.906,186.967,74.906,187.143z"/>
	<path fill="#0067B1" d="M80.236,190.324c0,1.301-1.293,1.998-3.877,2.094c-0.018,0.09-0.029,0.199-0.043,0.334
		c-0.012,0.133-0.018,0.256-0.018,0.367c0,0.234,0.021,0.428,0.064,0.576s0.115,0.268,0.219,0.355c0.1,0.09,0.23,0.15,0.396,0.188
		s0.367,0.055,0.607,0.055c0.281,0,0.566-0.031,0.855-0.092c0.289-0.062,0.561-0.146,0.818-0.252l0.037,0.834
		c-0.305,0.119-0.629,0.211-0.973,0.273s-0.713,0.096-1.104,0.096c-0.688,0-1.195-0.152-1.52-0.457s-0.484-0.797-0.484-1.479
		c0-0.578,0.078-1.125,0.232-1.641c0.154-0.518,0.377-0.969,0.658-1.357c0.285-0.389,0.627-0.693,1.027-0.92
		c0.398-0.225,0.848-0.336,1.344-0.336c0.318,0,0.59,0.039,0.811,0.113c0.221,0.076,0.398,0.178,0.541,0.303
		c0.141,0.125,0.24,0.27,0.307,0.434C80.205,189.979,80.236,190.148,80.236,190.324z M79.16,190.451c0-0.217-0.074-0.383-0.225-0.5
		c-0.148-0.115-0.344-0.174-0.584-0.174s-0.459,0.047-0.656,0.145c-0.195,0.096-0.373,0.229-0.527,0.396
		c-0.156,0.168-0.291,0.365-0.402,0.59c-0.113,0.227-0.205,0.463-0.277,0.711c0.932-0.039,1.607-0.154,2.033-0.342
		C78.945,191.09,79.16,190.814,79.16,190.451z"/>
	<path fill="#0067B1" d="M85.812,192.883c-0.008,0.047-0.033,0.18-0.072,0.391c-0.039,0.213-0.084,0.439-0.127,0.686
		c-0.045,0.244-0.088,0.473-0.127,0.686c-0.041,0.213-0.064,0.346-0.072,0.402h-1.062c0.049-0.256,0.129-0.584,0.24-0.982
		c0.113-0.4,0.264-0.881,0.447-1.439l-0.021-0.012c-0.113,0.23-0.25,0.496-0.414,0.793c-0.162,0.295-0.359,0.574-0.594,0.834
		c-0.229,0.262-0.492,0.48-0.789,0.662c-0.295,0.18-0.619,0.27-0.979,0.27c-0.432,0-0.76-0.145-0.986-0.432
		c-0.229-0.289-0.342-0.75-0.342-1.383c0-0.553,0.072-1.092,0.217-1.615s0.369-0.99,0.678-1.398c0.307-0.41,0.695-0.736,1.168-0.984
		c0.471-0.248,1.027-0.373,1.676-0.373c0.15,0,0.291,0.006,0.418,0.02c0.129,0.014,0.268,0.033,0.42,0.061l0.52-2.781h1.078
		L85.812,192.883z M84.928,189.869c-0.141-0.02-0.295-0.029-0.463-0.029c-0.447,0-0.828,0.104-1.141,0.312
		c-0.312,0.207-0.566,0.473-0.764,0.791c-0.195,0.32-0.342,0.676-0.434,1.068s-0.139,0.771-0.139,1.143
		c0,0.393,0.057,0.672,0.168,0.84c0.113,0.168,0.262,0.252,0.445,0.252c0.277,0,0.561-0.133,0.846-0.396s0.547-0.59,0.787-0.979
		s0.447-0.803,0.625-1.242c0.176-0.439,0.299-0.842,0.371-1.201l0.084-0.48C85.197,189.916,85.066,189.891,84.928,189.869z"/>
	<path fill="#0067B1" d="M94.732,187.924c-0.197-0.072-0.398-0.123-0.602-0.15c-0.199-0.027-0.375-0.041-0.527-0.041
		c-0.305,0-0.564,0.039-0.781,0.119s-0.396,0.182-0.543,0.307c-0.145,0.125-0.25,0.268-0.316,0.428
		c-0.068,0.158-0.104,0.318-0.104,0.479c0,0.25,0.062,0.459,0.188,0.631c0.123,0.174,0.277,0.334,0.457,0.48
		c0.184,0.148,0.381,0.293,0.6,0.434c0.217,0.141,0.416,0.297,0.598,0.469c0.18,0.172,0.332,0.373,0.457,0.602
		s0.188,0.502,0.188,0.822c0,0.377-0.078,0.729-0.234,1.053c-0.154,0.324-0.377,0.605-0.662,0.848
		c-0.283,0.24-0.621,0.43-1.016,0.564s-0.826,0.203-1.299,0.203c-0.217,0-0.443-0.014-0.68-0.041
		c-0.238-0.029-0.455-0.074-0.656-0.139l0.205-1.055c0.17,0.072,0.363,0.135,0.586,0.188c0.221,0.053,0.438,0.078,0.646,0.078
		c0.627,0,1.113-0.139,1.455-0.414c0.342-0.277,0.514-0.645,0.514-1.1c0-0.232-0.061-0.434-0.182-0.602s-0.275-0.322-0.461-0.463
		c-0.188-0.141-0.387-0.279-0.602-0.414c-0.215-0.137-0.414-0.291-0.6-0.463c-0.188-0.172-0.34-0.371-0.461-0.596
		s-0.184-0.5-0.184-0.828c0-0.336,0.064-0.654,0.191-0.955c0.129-0.301,0.318-0.564,0.572-0.793c0.252-0.229,0.562-0.41,0.938-0.547
		c0.371-0.137,0.803-0.205,1.291-0.205c0.209,0,0.404,0.01,0.596,0.023c0.188,0.018,0.396,0.049,0.631,0.096L94.732,187.924z"/>
	<path fill="#0067B1" d="M99.896,190.1c-0.16-0.072-0.33-0.129-0.51-0.168c-0.18-0.041-0.373-0.061-0.58-0.061
		c-0.377,0-0.703,0.096-0.984,0.287c-0.277,0.191-0.51,0.438-0.691,0.73c-0.186,0.295-0.32,0.625-0.408,0.988
		c-0.088,0.361-0.133,0.713-0.133,1.047c0,0.16,0.018,0.312,0.049,0.461s0.094,0.281,0.186,0.4c0.094,0.121,0.219,0.217,0.379,0.287
		c0.158,0.072,0.369,0.107,0.635,0.107c0.229,0,0.461-0.021,0.688-0.07c0.229-0.047,0.436-0.113,0.617-0.199v0.912
		c-0.217,0.088-0.463,0.162-0.74,0.223c-0.273,0.061-0.564,0.09-0.871,0.09c-0.385,0-0.711-0.051-0.979-0.15
		c-0.27-0.1-0.482-0.238-0.645-0.414c-0.16-0.176-0.275-0.385-0.348-0.623c-0.074-0.24-0.107-0.5-0.107-0.779
		c0-0.568,0.076-1.105,0.232-1.615c0.156-0.508,0.381-0.951,0.674-1.332c0.293-0.379,0.648-0.682,1.076-0.904
		c0.424-0.227,0.902-0.338,1.439-0.338c0.25,0,0.477,0.018,0.682,0.049c0.203,0.031,0.396,0.076,0.582,0.133L99.896,190.1z"/>
	<path fill="#0067B1" d="M101.473,195.043h-1.062l1.141-5.969h1.062L101.473,195.043z M103.143,187.143
		c0,0.217-0.074,0.395-0.223,0.535s-0.32,0.209-0.516,0.209c-0.209,0-0.375-0.062-0.5-0.191c-0.123-0.127-0.186-0.285-0.186-0.469
		c0-0.217,0.074-0.396,0.223-0.535c0.148-0.141,0.322-0.209,0.523-0.209s0.363,0.064,0.488,0.197
		C103.082,186.811,103.143,186.967,103.143,187.143z"/>
	<path fill="#0067B1" d="M108.473,190.324c0,1.301-1.293,1.998-3.879,2.094c-0.016,0.09-0.027,0.199-0.041,0.334
		c-0.014,0.133-0.02,0.256-0.02,0.367c0,0.234,0.021,0.428,0.066,0.576s0.115,0.268,0.217,0.355c0.102,0.09,0.232,0.15,0.396,0.188
		s0.367,0.055,0.609,0.055c0.281,0,0.564-0.031,0.854-0.092c0.289-0.062,0.562-0.146,0.82-0.252l0.035,0.834
		c-0.305,0.119-0.629,0.211-0.975,0.273c-0.344,0.062-0.711,0.096-1.104,0.096c-0.688,0-1.193-0.152-1.52-0.457
		c-0.322-0.305-0.484-0.797-0.484-1.479c0-0.578,0.078-1.125,0.232-1.641c0.156-0.518,0.377-0.969,0.66-1.357
		s0.625-0.693,1.025-0.92c0.398-0.225,0.848-0.336,1.344-0.336c0.32,0,0.59,0.039,0.812,0.113c0.221,0.076,0.398,0.178,0.539,0.303
		s0.24,0.27,0.307,0.434C108.439,189.979,108.473,190.148,108.473,190.324z M107.393,190.451c0-0.217-0.074-0.383-0.223-0.5
		c-0.148-0.115-0.342-0.174-0.584-0.174c-0.24,0-0.459,0.047-0.654,0.145c-0.197,0.096-0.373,0.229-0.531,0.396
		c-0.154,0.17-0.289,0.365-0.4,0.59c-0.113,0.227-0.205,0.463-0.277,0.711c0.932-0.039,1.609-0.154,2.035-0.342
		C107.18,191.09,107.393,190.814,107.393,190.451z"/>
	<path fill="#0067B1" d="M113.945,195.043h-1.062l0.734-3.812c0.088-0.473,0.09-0.812,0.006-1.025
		c-0.084-0.211-0.262-0.316-0.533-0.316c-0.277,0-0.555,0.129-0.83,0.391c-0.273,0.26-0.531,0.58-0.77,0.965
		s-0.447,0.799-0.621,1.24c-0.176,0.443-0.299,0.852-0.371,1.217l-0.254,1.344h-1.062l0.604-3.111
		c0.01-0.047,0.027-0.145,0.057-0.287c0.027-0.145,0.061-0.316,0.098-0.516c0.037-0.201,0.074-0.412,0.115-0.631
		c0.041-0.221,0.078-0.43,0.115-0.625s0.066-0.365,0.098-0.51c0.027-0.146,0.047-0.24,0.055-0.289h1.049
		c-0.041,0.201-0.109,0.482-0.207,0.85c-0.098,0.363-0.25,0.869-0.459,1.51h0.021c0.146-0.312,0.312-0.615,0.498-0.916
		c0.188-0.301,0.396-0.562,0.629-0.793c0.23-0.227,0.482-0.41,0.754-0.551s0.562-0.209,0.875-0.209c0.553,0,0.926,0.182,1.119,0.545
		c0.197,0.363,0.238,0.855,0.127,1.479L113.945,195.043z"/>
	<path fill="#0067B1" d="M120.369,190.1c-0.16-0.072-0.33-0.129-0.512-0.168c-0.18-0.041-0.373-0.061-0.58-0.061
		c-0.375,0-0.703,0.096-0.98,0.287c-0.279,0.191-0.514,0.438-0.695,0.73c-0.184,0.295-0.32,0.625-0.408,0.988
		c-0.088,0.361-0.131,0.713-0.131,1.047c0,0.16,0.016,0.312,0.047,0.461c0.033,0.146,0.094,0.281,0.188,0.4
		c0.092,0.121,0.219,0.217,0.377,0.287c0.16,0.072,0.371,0.107,0.635,0.107c0.23,0,0.461-0.021,0.688-0.07
		c0.23-0.047,0.436-0.113,0.617-0.199v0.912c-0.217,0.088-0.463,0.162-0.738,0.223s-0.566,0.09-0.873,0.09
		c-0.385,0-0.711-0.051-0.979-0.15c-0.27-0.1-0.482-0.238-0.645-0.414c-0.16-0.176-0.275-0.385-0.35-0.623
		c-0.072-0.24-0.105-0.5-0.105-0.779c0-0.568,0.078-1.105,0.232-1.615c0.156-0.508,0.381-0.951,0.672-1.332
		c0.295-0.379,0.652-0.682,1.076-0.904c0.426-0.227,0.906-0.338,1.443-0.338c0.248,0,0.475,0.018,0.678,0.049
		c0.205,0.031,0.398,0.076,0.584,0.133L120.369,190.1z"/>
	<path fill="#0067B1" d="M125.895,190.324c0,1.301-1.291,1.998-3.877,2.094c-0.016,0.09-0.029,0.199-0.041,0.334
		c-0.014,0.133-0.02,0.256-0.02,0.367c0,0.234,0.021,0.428,0.064,0.576c0.045,0.148,0.117,0.268,0.217,0.355
		c0.104,0.09,0.232,0.15,0.398,0.188c0.164,0.037,0.367,0.055,0.609,0.055c0.279,0,0.564-0.031,0.854-0.092
		c0.289-0.062,0.562-0.146,0.818-0.252l0.037,0.834c-0.307,0.119-0.631,0.211-0.975,0.273s-0.711,0.096-1.104,0.096
		c-0.688,0-1.193-0.152-1.52-0.457c-0.322-0.305-0.484-0.797-0.484-1.479c0-0.578,0.076-1.125,0.232-1.641
		c0.156-0.518,0.377-0.969,0.66-1.357s0.625-0.693,1.025-0.92c0.398-0.225,0.848-0.336,1.344-0.336c0.32,0,0.59,0.039,0.811,0.113
		c0.221,0.076,0.4,0.178,0.539,0.303c0.143,0.125,0.242,0.27,0.309,0.434C125.863,189.979,125.895,190.148,125.895,190.324z
		 M124.816,190.451c0-0.217-0.072-0.383-0.223-0.5c-0.15-0.115-0.342-0.174-0.584-0.174c-0.24,0-0.459,0.047-0.654,0.145
		c-0.195,0.096-0.373,0.229-0.531,0.396c-0.154,0.17-0.289,0.365-0.4,0.59c-0.111,0.227-0.205,0.463-0.277,0.711
		c0.934-0.039,1.609-0.154,2.035-0.342C124.604,191.09,124.816,190.814,124.816,190.451z"/>
	<path fill="#0067B1" d="M130.209,189.922c-0.287-0.096-0.588-0.145-0.9-0.145c-0.393,0-0.688,0.084-0.889,0.248
		c-0.199,0.164-0.299,0.375-0.299,0.631c0,0.16,0.043,0.303,0.131,0.428s0.201,0.242,0.336,0.354
		c0.137,0.111,0.283,0.229,0.438,0.344c0.156,0.115,0.303,0.242,0.438,0.377c0.137,0.137,0.248,0.289,0.336,0.457
		s0.135,0.365,0.135,0.59c0,0.248-0.057,0.49-0.162,0.729c-0.109,0.236-0.271,0.445-0.488,0.625
		c-0.215,0.182-0.484,0.324-0.805,0.434c-0.32,0.107-0.693,0.162-1.117,0.162c-0.4,0-0.742-0.025-1.021-0.078l0.191-0.979
		c0.32,0.111,0.646,0.168,0.979,0.168c0.393,0,0.711-0.078,0.951-0.234c0.242-0.154,0.363-0.391,0.363-0.703
		c0-0.158-0.047-0.299-0.135-0.42c-0.09-0.119-0.201-0.232-0.34-0.342c-0.137-0.109-0.281-0.217-0.434-0.324
		c-0.154-0.107-0.299-0.23-0.438-0.365c-0.137-0.137-0.25-0.293-0.338-0.471c-0.09-0.176-0.133-0.383-0.133-0.623
		c0-0.258,0.049-0.496,0.15-0.715c0.1-0.221,0.25-0.412,0.449-0.576s0.447-0.293,0.744-0.385c0.297-0.094,0.639-0.139,1.021-0.139
		c0.209,0,0.395,0.008,0.555,0.025c0.16,0.02,0.316,0.041,0.469,0.066L130.209,189.922z"/>
</g>
</svg>
