<?xml version="1.0" encoding="utf-8"?>
<!-- Generator: Adobe Illustrator 15.0.0, SVG Export Plug-In . SVG Version: 6.00 Build 0)  -->
<!DOCTYPE svg PUBLIC "-//W3C//DTD SVG 1.1//EN" "http://www.w3.org/Graphics/SVG/1.1/DTD/svg11.dtd">
<svg version="1.1" id="Layer_1" xmlns="http://www.w3.org/2000/svg" xmlns:xlink="http://www.w3.org/1999/xlink" x="0px" y="0px"
	 width="29px" height="370px" viewBox="283.137 236.445 29 370" enable-background="new 283.137 236.445 29 370"
	 xml:space="preserve">
<g>
	<path fill="#0067B1" d="M305.666,260.525v-16.75h-4.125v16.75h-5.625v-16.75h-9.125V236.9h24.5v23.625H305.666z M286.791,290.65
		v-6.875h9.142V271.4h-9.142v-6.875h24.5v6.875h-9.744v12.375h9.744v6.875H286.791z M309.67,316.591
		c-1.082,2.041-3.062,3.061-5.944,3.061c-3.043,0-5.106-1.018-6.188-3.057c-1.082-2.037-1.621-4.693-1.621-7.972v-6.473h-9.125
		v-6.875h24.5v13.328C311.291,311.887,310.75,314.55,309.67,316.591z M286.791,328.025V321.9h6.5v6.125H286.791z M298.8,352.15
		l-12.01-2.955v-4.92l12.01,2.75l12.491-2.75v4.92L298.8,352.15z M296.291,342.525v-12.1h5.375v12.1H296.291z M306.291,302.15
		h-5.375v5.732c0,2.071,0.224,3.426,0.672,4.062c0.447,0.637,1.16,0.955,2.14,0.955c0.977,0,1.646-0.318,2.014-0.955
		s0.551-1.99,0.551-4.062L306.291,302.15L306.291,302.15z M304.791,328.025V321.9h6.5v6.125H304.791z"/>
</g>
<g>
	<path fill="#0067B1" d="M310.455,478.717h-2.625v2.858h-0.891v-2.858h-3.672v-1.109h8.094v4.125h-0.906V478.717z"/>
	<path fill="#0067B1" d="M303.268,485.942c0.207,0,0.415,0.002,0.622,0.006c0.208,0.004,0.396,0.021,0.562,0.051v-0.022
		c-0.368-0.146-0.676-0.396-0.924-0.751c-0.248-0.356-0.371-0.783-0.371-1.28c0-0.496,0.147-0.896,0.443-1.201
		c0.295-0.305,0.684-0.457,1.162-0.457c0.646,0,1.15,0.312,1.511,0.938c0.359,0.626,0.54,1.51,0.54,2.656h0.396
		c0.418,0,0.737-0.095,0.958-0.282c0.222-0.188,0.332-0.53,0.332-1.026c0-0.281-0.041-0.578-0.123-0.895
		c-0.081-0.316-0.189-0.597-0.329-0.836l0.876-0.228c0.119,0.287,0.221,0.617,0.301,0.989c0.079,0.372,0.12,0.75,0.12,1.134
		c0,0.433-0.05,0.791-0.146,1.074c-0.096,0.285-0.229,0.512-0.401,0.684c-0.172,0.173-0.38,0.293-0.624,0.361
		c-0.242,0.067-0.509,0.102-0.797,0.102h-2.396c-0.28,0-0.571,0.003-0.875,0.009s-0.584,0.014-0.839,0.022L303.268,485.942
		L303.268,485.942z M306.064,485.881c0-0.496-0.033-0.906-0.098-1.23c-0.063-0.323-0.148-0.581-0.254-0.772
		c-0.104-0.191-0.225-0.328-0.36-0.408c-0.137-0.08-0.282-0.119-0.436-0.119c-0.266,0-0.483,0.082-0.656,0.246
		c-0.174,0.164-0.26,0.386-0.26,0.666c0,0.24,0.055,0.459,0.162,0.66c0.108,0.198,0.254,0.371,0.436,0.516
		c0.181,0.143,0.386,0.254,0.614,0.33c0.229,0.075,0.46,0.113,0.693,0.113L306.064,485.881L306.064,485.881z"/>
	<path fill="#0067B1" d="M303.258,492.015c-0.057-0.312-0.084-0.62-0.084-0.924c0-0.359,0.049-0.697,0.145-1.015
		c0.096-0.316,0.254-0.592,0.474-0.828c0.222-0.235,0.515-0.424,0.883-0.562c0.367-0.14,0.827-0.21,1.381-0.21
		c0.479,0,0.92,0.062,1.318,0.186c0.4,0.125,0.746,0.308,1.039,0.548c0.291,0.238,0.519,0.54,0.678,0.903
		c0.16,0.365,0.24,0.787,0.24,1.267c0,0.272-0.021,0.532-0.065,0.78c-0.045,0.247-0.107,0.476-0.188,0.685l-0.929-0.205
		c0.08-0.185,0.146-0.394,0.198-0.629c0.052-0.236,0.077-0.479,0.077-0.727c0-0.271-0.055-0.512-0.161-0.72
		c-0.108-0.207-0.263-0.381-0.461-0.521c-0.2-0.142-0.437-0.246-0.707-0.318c-0.271-0.072-0.571-0.107-0.898-0.107
		c-0.287,0-0.56,0.025-0.814,0.078c-0.256,0.052-0.478,0.143-0.665,0.271c-0.187,0.128-0.335,0.302-0.442,0.521
		c-0.108,0.222-0.161,0.494-0.161,0.822c0,0.52,0.095,0.981,0.286,1.391l-0.9,0.168C303.394,492.61,303.313,492.327,303.258,492.015
		z"/>
	<path fill="#0067B1" d="M303.268,498.024h3.842c0.433,0,0.765-0.07,0.997-0.211c0.23-0.141,0.349-0.411,0.349-0.812
		c0-0.248-0.061-0.478-0.181-0.687s-0.284-0.387-0.492-0.535c-0.208-0.147-0.454-0.265-0.738-0.35
		c-0.283-0.084-0.591-0.125-0.919-0.125h-2.856v-1.078h8.766v1.078h-2.834c-0.192,0-0.397-0.008-0.619-0.023
		c-0.22-0.014-0.41-0.041-0.569-0.08L308,495.227c0.409,0.176,0.735,0.438,0.98,0.791c0.244,0.352,0.367,0.779,0.367,1.283
		c0,0.344-0.052,0.631-0.15,0.857c-0.101,0.229-0.236,0.411-0.408,0.552c-0.173,0.142-0.375,0.24-0.606,0.302
		c-0.232,0.059-0.48,0.09-0.744,0.09h-4.168v-1.078H303.268z"/>
	<path fill="#0067B1" d="M303.268,504.925h3.842c0.433,0,0.765-0.07,0.997-0.21c0.23-0.142,0.349-0.412,0.349-0.812
		c0-0.248-0.061-0.477-0.181-0.686s-0.284-0.388-0.492-0.535c-0.208-0.148-0.454-0.267-0.738-0.351
		c-0.283-0.084-0.591-0.126-0.919-0.126h-2.856v-1.077h8.766v1.077h-2.834c-0.192,0-0.397-0.007-0.619-0.021
		c-0.22-0.016-0.41-0.041-0.569-0.08L308,502.128c0.409,0.176,0.735,0.439,0.98,0.792c0.244,0.352,0.367,0.778,0.367,1.282
		c0,0.345-0.052,0.63-0.15,0.857c-0.101,0.229-0.236,0.412-0.408,0.553c-0.173,0.141-0.375,0.24-0.606,0.299
		c-0.232,0.062-0.48,0.092-0.744,0.092h-4.168v-1.078H303.268z"/>
	<path fill="#0067B1" d="M306.354,513.073c-0.449,0-0.867-0.069-1.256-0.209c-0.39-0.141-0.728-0.337-1.016-0.589
		s-0.515-0.558-0.679-0.919c-0.164-0.359-0.246-0.76-0.246-1.199c0-0.407,0.06-0.776,0.18-1.104s0.306-0.607,0.554-0.84
		c0.248-0.233,0.562-0.412,0.942-0.54c0.38-0.128,0.835-0.192,1.363-0.192c0.44,0,0.852,0.066,1.231,0.199
		c0.38,0.131,0.713,0.324,0.996,0.576c0.284,0.252,0.51,0.557,0.674,0.918c0.164,0.358,0.247,0.764,0.247,1.213
		c0,0.383-0.056,0.739-0.163,1.066c-0.108,0.328-0.282,0.612-0.522,0.854s-0.551,0.428-0.931,0.563S306.891,513.073,306.354,513.073
		z M306.287,511.933c0.683,0,1.21-0.137,1.587-0.41c0.376-0.275,0.565-0.686,0.565-1.234c0-0.214-0.043-0.422-0.127-0.625
		c-0.084-0.202-0.214-0.381-0.392-0.535c-0.176-0.155-0.397-0.278-0.667-0.37c-0.269-0.09-0.587-0.138-0.955-0.138
		c-0.729,0-1.283,0.142-1.665,0.425c-0.381,0.28-0.569,0.696-0.569,1.243c0,0.224,0.043,0.435,0.132,0.634
		c0.088,0.196,0.224,0.373,0.408,0.522c0.184,0.15,0.415,0.271,0.69,0.357C305.571,511.889,305.902,511.933,306.287,511.933z"/>
	<path fill="#0067B1" d="M303.258,517.575c-0.057-0.312-0.084-0.621-0.084-0.924c0-0.36,0.049-0.698,0.145-1.014
		c0.096-0.316,0.254-0.592,0.474-0.828c0.222-0.236,0.515-0.424,0.883-0.564c0.367-0.14,0.827-0.209,1.381-0.209
		c0.479,0,0.92,0.062,1.318,0.187c0.4,0.123,0.746,0.306,1.039,0.545c0.291,0.24,0.519,0.543,0.678,0.906
		c0.16,0.362,0.24,0.784,0.24,1.266c0,0.271-0.021,0.531-0.065,0.779c-0.045,0.248-0.107,0.477-0.188,0.685l-0.929-0.204
		c0.08-0.184,0.146-0.394,0.198-0.629c0.052-0.236,0.077-0.479,0.077-0.727c0-0.271-0.055-0.513-0.161-0.72
		c-0.108-0.209-0.263-0.383-0.461-0.521c-0.2-0.141-0.437-0.246-0.707-0.318c-0.271-0.071-0.571-0.106-0.898-0.106
		c-0.287,0-0.56,0.024-0.814,0.078c-0.256,0.051-0.478,0.141-0.665,0.27c-0.188,0.127-0.335,0.301-0.442,0.521
		c-0.108,0.219-0.161,0.493-0.161,0.82c0,0.521,0.095,0.983,0.286,1.393l-0.9,0.168
		C303.394,518.172,303.313,517.886,303.258,517.575z"/>
	<path fill="#0067B1" d="M303.268,523.584h3.842c0.433,0,0.765-0.07,0.997-0.212c0.23-0.14,0.349-0.409,0.349-0.811
		c0-0.25-0.061-0.479-0.181-0.686c-0.12-0.209-0.284-0.389-0.492-0.536c-0.208-0.148-0.454-0.266-0.738-0.35
		c-0.283-0.084-0.591-0.127-0.919-0.127h-2.856v-1.078h8.766v1.078h-2.834c-0.192,0-0.397-0.008-0.619-0.021
		c-0.22-0.017-0.41-0.042-0.569-0.08L308,520.785c0.409,0.177,0.735,0.439,0.98,0.793c0.244,0.353,0.367,0.779,0.367,1.283
		c0,0.344-0.052,0.629-0.15,0.857c-0.101,0.229-0.236,0.412-0.408,0.553c-0.173,0.139-0.375,0.238-0.606,0.299
		c-0.232,0.062-0.48,0.09-0.744,0.09h-4.168v-1.076H303.268z"/>
	<path fill="#0067B1" d="M305.062,530.172c-0.271,0-0.523-0.06-0.755-0.175c-0.231-0.116-0.434-0.282-0.604-0.499
		c-0.171-0.216-0.306-0.479-0.4-0.792c-0.097-0.312-0.145-0.666-0.145-1.058c0-0.232,0.012-0.464,0.035-0.696
		c0.023-0.231,0.063-0.44,0.121-0.625l0.961,0.093c-0.081,0.19-0.143,0.403-0.183,0.635s-0.061,0.459-0.061,0.684
		c0,0.383,0.082,0.693,0.246,0.935s0.387,0.358,0.667,0.358c0.224,0,0.396-0.067,0.517-0.203c0.12-0.137,0.22-0.308,0.295-0.516
		c0.076-0.207,0.146-0.429,0.21-0.664c0.063-0.236,0.156-0.457,0.276-0.664c0.12-0.208,0.28-0.379,0.48-0.516
		c0.199-0.135,0.477-0.203,0.83-0.203c0.513,0,0.938,0.197,1.278,0.594c0.341,0.396,0.512,0.99,0.512,1.783
		c0,0.184-0.011,0.375-0.029,0.576c-0.021,0.199-0.05,0.393-0.091,0.576l-0.89-0.084c0.06-0.179,0.103-0.365,0.127-0.566
		c0.025-0.201,0.039-0.4,0.039-0.602c0-0.401-0.078-0.697-0.233-0.886s-0.361-0.282-0.617-0.282c-0.225,0-0.395,0.067-0.509,0.205
		c-0.116,0.137-0.215,0.309-0.294,0.518c-0.08,0.209-0.155,0.435-0.229,0.676c-0.071,0.24-0.166,0.467-0.281,0.676
		s-0.272,0.382-0.474,0.519C305.666,530.103,305.398,530.172,305.062,530.172z"/>
	<path fill="#0067B1" d="M303.258,534.795c-0.057-0.312-0.084-0.619-0.084-0.925c0-0.358,0.049-0.696,0.145-1.014
		c0.096-0.315,0.254-0.592,0.474-0.828c0.222-0.233,0.515-0.424,0.883-0.562c0.367-0.142,0.827-0.211,1.381-0.211
		c0.479,0,0.92,0.062,1.318,0.186c0.4,0.125,0.746,0.307,1.039,0.547c0.291,0.24,0.519,0.541,0.678,0.906
		c0.16,0.363,0.24,0.785,0.24,1.266c0,0.271-0.021,0.531-0.065,0.779c-0.045,0.248-0.107,0.476-0.188,0.684l-0.929-0.202
		c0.08-0.187,0.146-0.396,0.198-0.632c0.052-0.234,0.077-0.477,0.077-0.725c0-0.271-0.055-0.512-0.161-0.721
		c-0.108-0.207-0.263-0.381-0.461-0.521c-0.2-0.14-0.437-0.246-0.707-0.316c-0.271-0.071-0.571-0.108-0.898-0.108
		c-0.287,0-0.56,0.026-0.814,0.078c-0.256,0.053-0.478,0.143-0.665,0.27c-0.188,0.13-0.335,0.304-0.442,0.521
		c-0.108,0.221-0.161,0.494-0.161,0.822c0,0.52,0.095,0.982,0.286,1.391l-0.9,0.168C303.394,535.39,303.313,535.106,303.258,534.795
		z"/>
	<path fill="#0067B1" d="M303.268,540.804h3.842c0.433,0,0.765-0.07,0.997-0.211c0.23-0.142,0.349-0.411,0.349-0.812
		c0-0.248-0.061-0.477-0.181-0.686s-0.284-0.387-0.492-0.535s-0.454-0.265-0.738-0.35c-0.283-0.084-0.591-0.125-0.919-0.125h-2.856
		v-1.078h8.766v1.078h-2.834c-0.192,0-0.397-0.009-0.619-0.023c-0.22-0.014-0.41-0.041-0.569-0.08L308,538.008
		c0.409,0.176,0.735,0.438,0.98,0.791c0.244,0.352,0.367,0.778,0.367,1.283c0,0.344-0.052,0.631-0.15,0.857
		c-0.101,0.229-0.236,0.411-0.408,0.552c-0.173,0.142-0.375,0.24-0.606,0.302c-0.232,0.059-0.48,0.09-0.744,0.09h-4.168v-1.078
		H303.268z"/>
	<path fill="#0067B1" d="M303.268,547.72c0.184,0,0.394,0.006,0.629,0.021s0.446,0.037,0.631,0.068v-0.025
		c-0.408-0.176-0.739-0.439-0.991-0.795c-0.253-0.354-0.378-0.789-0.378-1.299c0-0.344,0.05-0.629,0.149-0.854
		c0.101-0.229,0.235-0.412,0.408-0.552c0.173-0.141,0.374-0.237,0.605-0.293c0.232-0.057,0.48-0.084,0.745-0.084h4.169v1.078h-3.843
		c-0.434,0-0.766,0.07-0.997,0.214c-0.232,0.145-0.349,0.409-0.349,0.798c0,0.246,0.061,0.474,0.181,0.68s0.284,0.386,0.492,0.536
		c0.208,0.149,0.453,0.268,0.737,0.352c0.284,0.082,0.591,0.125,0.919,0.125h2.858v1.078h-5.969v-1.047H303.268z"/>
	<path fill="#0067B1" d="M303.268,550.807h8.766v1.078h-8.766V550.807z"/>
	<path fill="#0067B1" d="M306.835,558.442c-0.128,0-0.312-0.013-0.552-0.037v-3.899c-0.787-0.024-1.358,0.123-1.715,0.443
		c-0.357,0.32-0.535,0.803-0.535,1.442c0,0.289,0.029,0.578,0.09,0.871s0.149,0.569,0.271,0.836l-0.863,0.156
		c-0.12-0.306-0.212-0.632-0.275-0.979s-0.096-0.709-0.096-1.086c0-0.912,0.246-1.605,0.738-2.082
		c0.492-0.476,1.268-0.713,2.325-0.713c0.447,0,0.861,0.059,1.242,0.18c0.382,0.119,0.711,0.293,0.991,0.521
		c0.28,0.227,0.499,0.506,0.655,0.832c0.156,0.328,0.234,0.703,0.234,1.127c0,0.416-0.066,0.774-0.199,1.08
		c-0.132,0.303-0.312,0.551-0.54,0.742c-0.229,0.191-0.494,0.334-0.799,0.426C307.504,558.396,307.18,558.442,306.835,558.442z
		 M308.141,556.997c0.271-0.239,0.407-0.571,0.407-0.997c0-0.392-0.137-0.718-0.407-0.978c-0.272-0.262-0.638-0.423-1.093-0.486
		v2.797C307.504,557.349,307.868,557.237,308.141,556.997z"/>
	<path fill="#0067B1" d="M309.038,567.528c-0.398,0-0.762-0.078-1.089-0.233c-0.327-0.156-0.611-0.371-0.85-0.647
		c-0.24-0.276-0.427-0.606-0.558-0.99c-0.132-0.384-0.196-0.804-0.196-1.261c0-0.104,0-0.212,0-0.324c0-0.104,0.01-0.212,0.03-0.323
		h-3.108v-1.109h8.094c0.016,0.305,0.027,0.621,0.035,0.949s0.012,0.678,0.012,1.046c0,0.937-0.214,1.654-0.641,2.15
		C310.341,567.28,309.764,567.528,309.038,567.528z M308.931,566.388c0.503,0,0.892-0.15,1.163-0.451
		c0.271-0.303,0.407-0.773,0.407-1.418c0-0.152,0-0.293,0-0.422c0-0.12-0.006-0.236-0.016-0.351h-3.188
		c-0.016,0.105-0.026,0.214-0.034,0.326c-0.009,0.112-0.013,0.226-0.013,0.338c0.008,0.603,0.161,1.082,0.461,1.44
		C308.012,566.21,308.419,566.388,308.931,566.388z"/>
	<path fill="#0067B1" d="M306.354,573.696c-0.449,0-0.867-0.069-1.256-0.209c-0.39-0.141-0.728-0.337-1.016-0.589
		s-0.515-0.558-0.679-0.919c-0.164-0.359-0.246-0.76-0.246-1.199c0-0.408,0.06-0.776,0.18-1.104s0.306-0.607,0.554-0.84
		c0.248-0.233,0.562-0.412,0.942-0.54c0.38-0.128,0.835-0.192,1.363-0.192c0.44,0,0.852,0.066,1.231,0.199
		c0.38,0.131,0.713,0.324,0.996,0.576c0.284,0.252,0.51,0.557,0.674,0.918c0.164,0.358,0.247,0.764,0.247,1.213
		c0,0.383-0.056,0.738-0.163,1.066c-0.108,0.328-0.282,0.612-0.522,0.854s-0.551,0.428-0.931,0.563S306.891,573.696,306.354,573.696
		z M306.287,572.556c0.683,0,1.21-0.137,1.587-0.41c0.376-0.275,0.565-0.686,0.565-1.234c0-0.214-0.043-0.422-0.127-0.625
		c-0.084-0.202-0.214-0.381-0.392-0.535c-0.176-0.155-0.397-0.278-0.667-0.37c-0.269-0.091-0.587-0.138-0.955-0.138
		c-0.729,0-1.283,0.142-1.665,0.425c-0.381,0.28-0.569,0.696-0.569,1.243c0,0.224,0.043,0.435,0.132,0.634
		c0.088,0.196,0.224,0.373,0.408,0.522c0.184,0.15,0.415,0.271,0.69,0.357C305.571,572.512,305.902,572.556,306.287,572.556z"/>
	<path fill="#0067B1" d="M303.209,577.646c-0.022-0.215-0.035-0.42-0.035-0.611c0-0.305,0.031-0.559,0.097-0.762
		c0.062-0.203,0.168-0.367,0.312-0.491c0.145-0.124,0.33-0.212,0.559-0.263c0.229-0.053,0.502-0.078,0.821-0.078h3.433v-1.225h0.844
		v1.225h1.934l0.302,1.078h-2.234v1.668h-0.844v-1.668h-3.049c-0.248,0-0.452,0.012-0.612,0.035
		c-0.16,0.022-0.288,0.069-0.384,0.139c-0.098,0.067-0.162,0.156-0.198,0.264c-0.036,0.108-0.054,0.246-0.054,0.414
		c0,0.271,0.03,0.523,0.096,0.756l-0.887,0.107C303.266,578.058,303.233,577.862,303.209,577.646z"/>
	<path fill="#0067B1" d="M305.062,583.127c-0.271,0-0.523-0.059-0.755-0.175c-0.232-0.116-0.434-0.281-0.604-0.498
		c-0.172-0.217-0.306-0.479-0.4-0.793c-0.096-0.312-0.145-0.664-0.145-1.057c0-0.232,0.012-0.465,0.035-0.697
		c0.023-0.231,0.063-0.439,0.121-0.625l0.961,0.094c-0.081,0.191-0.143,0.402-0.183,0.635c-0.04,0.23-0.061,0.46-0.061,0.683
		c0,0.383,0.082,0.695,0.246,0.934c0.164,0.24,0.387,0.359,0.667,0.359c0.224,0,0.396-0.067,0.517-0.203s0.22-0.307,0.295-0.515
		c0.076-0.208,0.146-0.429,0.21-0.665c0.063-0.234,0.156-0.457,0.276-0.664s0.28-0.379,0.48-0.516
		c0.199-0.136,0.477-0.203,0.83-0.203c0.513,0,0.938,0.198,1.278,0.595c0.341,0.396,0.512,0.99,0.512,1.782
		c0,0.184-0.011,0.377-0.029,0.576c-0.021,0.199-0.05,0.393-0.091,0.575l-0.89-0.084c0.06-0.176,0.103-0.364,0.127-0.565
		c0.025-0.199,0.039-0.4,0.039-0.603c0-0.399-0.078-0.694-0.233-0.885c-0.155-0.188-0.361-0.283-0.617-0.283
		c-0.225,0-0.395,0.068-0.509,0.205c-0.116,0.138-0.215,0.312-0.294,0.521c-0.08,0.209-0.155,0.434-0.229,0.674
		c-0.071,0.242-0.166,0.467-0.281,0.676s-0.272,0.381-0.474,0.519C305.666,583.058,305.398,583.127,305.062,583.127z"/>
	<path fill="#0067B1" d="M303.268,588.336c0.168,0,0.367,0.007,0.6,0.02c0.231,0.013,0.437,0.04,0.611,0.082l0.012-0.024
		c-0.408-0.169-0.732-0.427-0.973-0.773c-0.241-0.347-0.359-0.758-0.359-1.23c0-0.735,0.25-1.286,0.75-1.649
		c0.5-0.365,1.187-0.547,2.058-0.547c0.521,0,0.988,0.071,1.404,0.217c0.416,0.145,0.769,0.35,1.057,0.617
		c0.287,0.27,0.508,0.594,0.659,0.973c0.152,0.381,0.229,0.807,0.229,1.279c0,0.16-0.007,0.321-0.021,0.485
		c-0.013,0.164-0.026,0.339-0.043,0.521h2.781v1.078h-8.766V588.336L303.268,588.336z M308.338,588.304
		c0.049-0.185,0.082-0.363,0.104-0.539c0.02-0.177,0.03-0.35,0.03-0.519c0-0.286-0.046-0.547-0.134-0.778
		c-0.088-0.232-0.229-0.431-0.42-0.594c-0.192-0.164-0.44-0.294-0.746-0.386c-0.304-0.092-0.672-0.139-1.104-0.139
		c-0.649,0-1.147,0.106-1.496,0.318c-0.349,0.213-0.522,0.547-0.522,1.002c0,0.272,0.071,0.511,0.217,0.715
		c0.144,0.204,0.325,0.374,0.547,0.51c0.22,0.137,0.466,0.238,0.739,0.307c0.271,0.068,0.539,0.103,0.805,0.103H308.338
		L308.338,588.304z"/>
	<path fill="#0067B1" d="M303.268,594.613c0.207,0,0.415,0.001,0.622,0.005c0.208,0.004,0.396,0.021,0.562,0.054v-0.023
		c-0.368-0.145-0.676-0.396-0.924-0.752c-0.248-0.356-0.371-0.783-0.371-1.279c0-0.498,0.147-0.897,0.443-1.203
		c0.295-0.305,0.684-0.456,1.162-0.456c0.646,0,1.15,0.312,1.511,0.938c0.359,0.626,0.54,1.511,0.54,2.656h0.396
		c0.418,0,0.737-0.096,0.958-0.282c0.222-0.188,0.332-0.531,0.332-1.027c0-0.278-0.041-0.578-0.123-0.895
		c-0.081-0.316-0.189-0.594-0.329-0.834l0.876-0.229c0.119,0.289,0.221,0.618,0.301,0.99c0.079,0.372,0.12,0.75,0.12,1.135
		c0,0.433-0.05,0.789-0.146,1.074c-0.096,0.283-0.229,0.512-0.401,0.684c-0.172,0.173-0.38,0.291-0.624,0.359
		c-0.242,0.068-0.509,0.104-0.797,0.104h-2.396c-0.28,0-0.571,0.003-0.875,0.008s-0.584,0.013-0.839,0.022L303.268,594.613
		L303.268,594.613z M306.064,594.552c0-0.496-0.033-0.905-0.098-1.229c-0.063-0.324-0.148-0.582-0.254-0.772
		c-0.104-0.192-0.225-0.328-0.36-0.408c-0.137-0.08-0.282-0.12-0.436-0.12c-0.266,0-0.483,0.081-0.656,0.245
		c-0.174,0.164-0.26,0.387-0.26,0.666c0,0.24,0.055,0.461,0.162,0.66c0.108,0.198,0.254,0.371,0.436,0.516
		c0.181,0.146,0.386,0.254,0.614,0.33c0.229,0.076,0.46,0.114,0.693,0.114L306.064,594.552L306.064,594.552z"/>
	<path fill="#0067B1" d="M303.268,605.115h3.83c0.407,0,0.735-0.062,0.983-0.191c0.248-0.127,0.373-0.388,0.373-0.777
		c0-0.217-0.055-0.424-0.162-0.623c-0.107-0.201-0.265-0.379-0.469-0.533c-0.204-0.156-0.452-0.281-0.744-0.373
		c-0.293-0.092-0.619-0.137-0.979-0.137h-2.834v-1.078h3.83c0.191,0,0.369-0.012,0.533-0.037c0.164-0.022,0.308-0.07,0.428-0.144
		s0.216-0.173,0.288-0.3c0.07-0.129,0.107-0.293,0.107-0.494c0-0.232-0.059-0.449-0.175-0.648c-0.116-0.201-0.278-0.377-0.486-0.529
		c-0.208-0.151-0.456-0.272-0.744-0.36c-0.287-0.088-0.604-0.132-0.947-0.132h-2.834v-1.078h5.969v1.047
		c-0.186,0-0.396-0.007-0.631-0.02c-0.235-0.014-0.445-0.041-0.63-0.082l-0.013,0.023c0.426,0.178,0.762,0.448,1.01,0.814
		c0.248,0.364,0.373,0.788,0.373,1.27c0,0.313-0.05,0.574-0.146,0.783c-0.097,0.209-0.213,0.375-0.349,0.5
		c-0.137,0.125-0.284,0.213-0.444,0.266s-0.301,0.086-0.42,0.103c0.144,0.063,0.294,0.151,0.45,0.264
		c0.155,0.112,0.302,0.252,0.438,0.42s0.248,0.363,0.336,0.588c0.088,0.224,0.133,0.479,0.133,0.767
		c0,0.567-0.155,1.006-0.469,1.312c-0.312,0.31-0.809,0.462-1.49,0.462h-4.118v-1.08H303.268z"/>
</g>
<g>
	<path fill="#0067B1" d="M289.86,396.615c-1.064-0.2-1.844-0.609-2.34-1.23s-0.744-1.443-0.744-2.467
		c0-0.594,0.076-1.069,0.228-1.43c0.151-0.359,0.361-0.631,0.63-0.811c0.269-0.182,0.58-0.284,0.937-0.312
		c0.355-0.027,0.738-0.002,1.146,0.078l5.279,1v1.078l-5.332-1.016c-0.647-0.12-1.141-0.068-1.477,0.155
		c-0.336,0.225-0.504,0.695-0.504,1.414c0,0.344,0.04,0.651,0.12,0.923c0.079,0.271,0.21,0.512,0.39,0.72
		c0.18,0.207,0.416,0.381,0.708,0.521c0.292,0.141,0.649,0.25,1.075,0.33l5.019,0.953v1.062L289.86,396.615z"/>
	<path fill="#0067B1" d="M286.902,402.802v-1.062l3.812,0.734c0.473,0.088,0.813,0.09,1.025,0.006s0.318-0.261,0.318-0.532
		c0-0.278-0.13-0.556-0.391-0.831c-0.26-0.274-0.581-0.532-0.965-0.771c-0.384-0.239-0.798-0.447-1.241-0.622
		c-0.443-0.176-0.85-0.299-1.217-0.371l-1.343-0.254v-1.062l3.111,0.606c0.048,0.008,0.144,0.025,0.287,0.055
		c0.145,0.028,0.316,0.062,0.517,0.098c0.2,0.035,0.411,0.074,0.63,0.114c0.221,0.041,0.429,0.079,0.625,0.115
		c0.196,0.037,0.366,0.069,0.51,0.097c0.146,0.028,0.24,0.046,0.289,0.056v1.047c-0.201-0.041-0.483-0.109-0.849-0.206
		c-0.365-0.098-0.869-0.25-1.511-0.459v0.022c0.312,0.145,0.616,0.311,0.917,0.497c0.3,0.188,0.562,0.397,0.792,0.629
		c0.228,0.231,0.41,0.483,0.551,0.756c0.14,0.271,0.21,0.562,0.21,0.875c0,0.551-0.183,0.924-0.545,1.119
		c-0.364,0.196-0.857,0.238-1.48,0.126L286.902,402.802z"/>
	<path fill="#0067B1" d="M286.902,405.854v-1.062l5.969,1.141v1.062L286.902,405.854z M294.803,407.526
		c-0.217,0-0.396-0.074-0.535-0.223c-0.142-0.149-0.21-0.319-0.21-0.514c0-0.209,0.063-0.375,0.191-0.5
		c0.128-0.124,0.285-0.187,0.47-0.187c0.216,0,0.395,0.074,0.534,0.223c0.141,0.149,0.21,0.323,0.21,0.524s-0.065,0.363-0.198,0.488
		C295.134,407.464,294.979,407.526,294.803,407.526z"/>
	<path fill="#0067B1" d="M286.902,410.261v-1.109l5.969-1.062v1.141l-3.507,0.56c-0.393,0.065-0.777,0.109-1.153,0.135v0.012
		l4.911,2.513l-0.348,1L286.902,410.261z"/>
	<path fill="#0067B1" d="M291.62,418.519c-1.299,0-1.997-1.292-2.093-3.877c-0.089-0.016-0.2-0.03-0.333-0.042
		s-0.256-0.019-0.369-0.019c-0.234,0-0.426,0.022-0.575,0.066c-0.148,0.044-0.268,0.117-0.356,0.217
		c-0.089,0.101-0.151,0.233-0.188,0.398c-0.036,0.165-0.054,0.367-0.054,0.607c0,0.281,0.031,0.566,0.092,0.856
		c0.062,0.29,0.146,0.562,0.251,0.82l-0.833,0.036c-0.119-0.305-0.211-0.629-0.273-0.973c-0.063-0.344-0.096-0.712-0.096-1.104
		c0-0.688,0.152-1.194,0.457-1.519c0.305-0.323,0.797-0.485,1.479-0.485c0.577,0,1.124,0.078,1.64,0.233
		c0.517,0.156,0.969,0.376,1.358,0.66c0.388,0.284,0.693,0.626,0.919,1.025c0.224,0.399,0.336,0.848,0.336,1.344
		c0,0.32-0.038,0.59-0.114,0.81c-0.076,0.221-0.176,0.399-0.301,0.54s-0.27,0.242-0.434,0.307
		C291.967,418.487,291.797,418.519,291.62,418.519z M291.493,417.44c0.217,0,0.383-0.074,0.5-0.223
		c0.117-0.149,0.175-0.343,0.175-0.583c0-0.241-0.048-0.46-0.145-0.656c-0.096-0.196-0.229-0.373-0.397-0.529
		c-0.169-0.156-0.364-0.291-0.59-0.402c-0.225-0.112-0.462-0.205-0.711-0.277c0.04,0.931,0.155,1.609,0.343,2.034
		C290.856,417.228,291.131,417.44,291.493,417.44z"/>
	<path fill="#0067B1" d="M291.935,423.122c0.08-0.276,0.01-0.551-0.21-0.82c-0.221-0.271-0.52-0.522-0.896-0.756
		c-0.376-0.234-0.797-0.44-1.261-0.617s-0.905-0.306-1.321-0.386l-1.345-0.254v-1.062l3.111,0.605
		c0.479,0.09,0.956,0.179,1.429,0.268s0.949,0.178,1.429,0.267v1.031c-0.256-0.048-0.556-0.119-0.9-0.211
		c-0.345-0.093-0.776-0.229-1.297-0.404l-0.012,0.024c0.36,0.167,0.695,0.338,1.003,0.513c0.309,0.175,0.567,0.363,0.775,0.566
		s0.362,0.423,0.462,0.663c0.1,0.237,0.126,0.5,0.078,0.787L291.935,423.122z"/>
	<path fill="#0067B1" d="M292.023,427.021c0.096-0.289,0.144-0.59,0.144-0.9c0-0.393-0.083-0.688-0.247-0.889
		c-0.164-0.201-0.375-0.301-0.631-0.301c-0.161,0-0.303,0.044-0.427,0.133c-0.125,0.088-0.243,0.199-0.355,0.336
		c-0.111,0.135-0.227,0.281-0.343,0.438c-0.116,0.156-0.242,0.303-0.378,0.438c-0.136,0.137-0.289,0.248-0.457,0.336
		s-0.365,0.133-0.589,0.133c-0.248,0-0.491-0.055-0.728-0.162s-0.445-0.271-0.625-0.485c-0.182-0.217-0.325-0.486-0.434-0.808
		c-0.107-0.319-0.163-0.691-0.163-1.116c0-0.4,0.026-0.741,0.078-1.021l0.98,0.193c-0.112,0.319-0.168,0.646-0.168,0.977
		c0,0.396,0.078,0.711,0.233,0.953c0.156,0.24,0.392,0.361,0.703,0.361c0.16,0,0.3-0.045,0.42-0.133
		c0.12-0.09,0.234-0.201,0.343-0.339s0.217-0.282,0.324-0.436c0.108-0.152,0.23-0.299,0.366-0.437
		c0.136-0.137,0.292-0.25,0.469-0.338c0.176-0.088,0.384-0.133,0.624-0.133c0.257,0,0.495,0.051,0.715,0.15
		c0.221,0.099,0.412,0.25,0.576,0.451c0.164,0.198,0.292,0.448,0.385,0.744c0.093,0.297,0.139,0.639,0.139,1.022
		c0,0.207-0.009,0.393-0.027,0.553c-0.018,0.16-0.04,0.316-0.066,0.47L292.023,427.021z"/>
	<path fill="#0067B1" d="M286.902,429.051v-1.062l5.969,1.142v1.062L286.902,429.051z M294.803,430.722
		c-0.217,0-0.396-0.074-0.535-0.224c-0.142-0.148-0.21-0.319-0.21-0.514c0-0.209,0.063-0.375,0.191-0.5
		c0.128-0.123,0.285-0.186,0.47-0.186c0.216,0,0.395,0.073,0.534,0.223c0.141,0.149,0.21,0.322,0.21,0.523
		c0,0.2-0.065,0.362-0.198,0.487C295.134,430.659,294.979,430.722,294.803,430.722z"/>
	<path fill="#0067B1" d="M292.027,434.93v-1.614l-3.121-0.594c-0.464-0.088-0.776-0.094-0.937-0.019
		c-0.161,0.076-0.24,0.261-0.24,0.556c0,0.167,0.008,0.315,0.023,0.446c0.017,0.132,0.041,0.257,0.074,0.375l-0.899-0.071
		c-0.04-0.177-0.069-0.361-0.091-0.558c-0.02-0.194-0.029-0.381-0.029-0.557c0-0.305,0.038-0.554,0.113-0.75
		c0.076-0.195,0.192-0.344,0.349-0.443c0.155-0.099,0.355-0.155,0.6-0.168c0.244-0.012,0.534,0.016,0.87,0.078l3.287,0.642v-1.22
		l0.844,0.17v1.206l1.933,0.374l0.252,1.109l-2.185-0.418v1.621L292.027,434.93z"/>
	<path fill="#0067B1" d="M288.037,438.741c-1.324-0.746-2.357-1.494-3.102-2.247c-0.721-0.72-1.08-1.437-1.08-2.146
		c0-0.152,0.005-0.301,0.017-0.445c0.011-0.143,0.032-0.274,0.062-0.395l0.979,0.18c-0.08,0.23-0.12,0.484-0.12,0.756
		c0,0.207,0.061,0.428,0.181,0.66c0.12,0.23,0.288,0.451,0.504,0.66c0.256,0.229,0.529,0.4,0.821,0.51
		c0.292,0.107,0.654,0.162,1.087,0.162c0.8,0,1.672-0.078,2.616-0.234c0.945-0.155,1.9-0.369,2.869-0.641v1.203
		c-0.384,0.096-0.787,0.186-1.207,0.27s-0.834,0.156-1.242,0.216c-0.407,0.061-0.803,0.106-1.183,0.139s-0.73,0.049-1.051,0.049
		c-0.112,0-0.234-0.01-0.366-0.027c-0.132-0.017-0.258-0.04-0.378-0.065v0.012c0.416,0.24,0.837,0.471,1.265,0.691
		c0.429,0.22,0.872,0.44,1.332,0.661c0.459,0.222,0.941,0.443,1.445,0.669c0.504,0.225,1.043,0.452,1.619,0.686l-0.297,1
		C290.952,440.26,289.361,439.485,288.037,438.741z"/>
	<path fill="#0067B1" d="M290.829,449.508c-0.616,0-1.173-0.099-1.67-0.294c-0.496-0.196-0.921-0.456-1.272-0.779
		c-0.353-0.323-0.623-0.696-0.812-1.115c-0.188-0.419-0.282-0.853-0.282-1.302c0-0.75,0.183-1.303,0.546-1.654
		c0.364-0.351,0.892-0.526,1.58-0.526c0.593,0,1.139,0.088,1.634,0.264c0.497,0.176,0.926,0.42,1.286,0.73
		c0.361,0.312,0.642,0.678,0.842,1.098c0.199,0.42,0.3,0.873,0.3,1.36c0,0.394-0.053,0.729-0.156,1.009
		c-0.104,0.278-0.252,0.51-0.445,0.688c-0.192,0.179-0.42,0.312-0.685,0.396C291.43,449.466,291.142,449.508,290.829,449.508z
		 M290.713,448.366c0.441,0,0.778-0.102,1.013-0.305c0.231-0.202,0.349-0.518,0.349-0.947c0-0.326-0.084-0.622-0.253-0.889
		c-0.168-0.266-0.392-0.494-0.668-0.687c-0.277-0.189-0.594-0.338-0.951-0.44c-0.356-0.104-0.725-0.154-1.102-0.154
		c-0.45,0-0.792,0.096-1.03,0.286c-0.236,0.19-0.355,0.513-0.355,0.966c0,0.286,0.074,0.562,0.224,0.822
		c0.148,0.261,0.354,0.493,0.621,0.691c0.265,0.198,0.582,0.356,0.951,0.477C289.879,448.306,290.279,448.366,290.713,448.366z"/>
	<path fill="#0067B1" d="M294.75,455.226c0.04-0.135,0.07-0.277,0.09-0.426c0.021-0.148,0.03-0.285,0.03-0.414
		c0-0.433-0.125-0.771-0.374-1.021s-0.655-0.42-1.217-0.517l-0.41-0.071v1.619l-0.844-0.18v-1.607l-5.424-1.025
		c-0.977-0.186-1.679-0.507-2.106-0.965c-0.428-0.457-0.642-1.051-0.642-1.78c0-0.369,0.037-0.715,0.108-1.036l0.917,0.265
		c-0.04,0.137-0.068,0.279-0.09,0.433c-0.02,0.151-0.03,0.288-0.03,0.407c0,0.218,0.03,0.41,0.091,0.578
		c0.06,0.168,0.159,0.316,0.3,0.443c0.14,0.129,0.326,0.24,0.557,0.336c0.232,0.098,0.524,0.178,0.876,0.241l5.443,1.042v-1.214
		l0.844,0.181v1.188l0.418,0.084c0.822,0.145,1.435,0.438,1.837,0.878c0.402,0.441,0.604,1.051,0.604,1.828
		c0,0.328-0.036,0.66-0.106,0.997L294.75,455.226z"/>
	<path fill="#0067B1" d="M286.902,461.972l1.891-0.293v-3.394l-1.891-1.018v-1.141l8.094,4.422v1.203l-8.094,1.375V461.972z
		 M292.64,461.045c0.185-0.032,0.374-0.06,0.565-0.078c0.193-0.021,0.378-0.039,0.556-0.057v-0.013
		c-0.17-0.08-0.349-0.163-0.536-0.251c-0.189-0.088-0.376-0.184-0.562-0.288l-3.012-1.617v2.815L292.64,461.045z"/>
	<path fill="#0067B1" d="M291.171,469.903c-0.551,0-1.086-0.074-1.604-0.223c-0.52-0.149-0.982-0.373-1.39-0.678
		c-0.406-0.306-0.734-0.691-0.981-1.164c-0.248-0.473-0.372-1.035-0.372-1.691c0-0.288,0.021-0.568,0.062-0.84l-2.952-0.545V463.7
		l6.079,1.158c0.048,0.008,0.144,0.025,0.287,0.053c0.145,0.029,0.314,0.062,0.512,0.097c0.195,0.036,0.405,0.073,0.63,0.112
		c0.224,0.041,0.434,0.078,0.63,0.113c0.196,0.037,0.367,0.068,0.511,0.096c0.146,0.029,0.24,0.048,0.289,0.056v1.051
		c-0.128-0.024-0.265-0.055-0.41-0.09c-0.145-0.035-0.312-0.078-0.5-0.131c-0.188-0.052-0.403-0.111-0.645-0.185
		c-0.241-0.069-0.522-0.158-0.844-0.26l-0.013,0.023c0.353,0.151,0.681,0.323,0.984,0.517c0.304,0.192,0.569,0.404,0.798,0.637
		s0.408,0.485,0.54,0.757c0.132,0.272,0.198,0.562,0.198,0.865c0,0.433-0.145,0.763-0.432,0.99
		C292.261,469.788,291.802,469.903,291.171,469.903z M290.97,468.825c0.391,0,0.669-0.057,0.837-0.17
		c0.167-0.11,0.251-0.261,0.251-0.444c0-0.187-0.062-0.373-0.186-0.566c-0.124-0.193-0.285-0.378-0.483-0.555
		c-0.199-0.178-0.432-0.349-0.693-0.513c-0.263-0.166-0.534-0.313-0.812-0.446c-0.278-0.134-0.559-0.244-0.837-0.337
		c-0.278-0.094-0.533-0.163-0.765-0.212l-0.454-0.097c-0.04,0.129-0.074,0.273-0.102,0.435c-0.027,0.16-0.042,0.307-0.042,0.435
		c0,0.442,0.102,0.817,0.305,1.128c0.203,0.309,0.464,0.564,0.783,0.765c0.318,0.2,0.674,0.348,1.063,0.44
		C290.225,468.778,290.604,468.825,290.97,468.825z"/>
	<path fill="#0067B1" d="M291.171,476.358c-0.551,0-1.086-0.074-1.604-0.221c-0.52-0.148-0.982-0.375-1.39-0.679
		c-0.406-0.305-0.734-0.692-0.981-1.163c-0.248-0.474-0.372-1.037-0.372-1.692c0-0.288,0.021-0.567,0.062-0.84l-2.952-0.546v-1.062
		l6.079,1.158c0.048,0.008,0.144,0.027,0.287,0.055c0.145,0.028,0.314,0.06,0.512,0.097c0.195,0.035,0.405,0.071,0.63,0.112
		c0.224,0.039,0.434,0.077,0.63,0.113c0.196,0.035,0.367,0.068,0.511,0.096c0.146,0.027,0.24,0.046,0.289,0.054v1.051
		c-0.128-0.023-0.265-0.053-0.41-0.088c-0.145-0.037-0.312-0.08-0.5-0.131c-0.188-0.052-0.403-0.113-0.645-0.185
		s-0.522-0.158-0.844-0.262l-0.013,0.024c0.353,0.15,0.681,0.323,0.984,0.517c0.304,0.19,0.569,0.404,0.798,0.637
		s0.408,0.484,0.54,0.758c0.132,0.271,0.198,0.562,0.198,0.864c0,0.434-0.145,0.763-0.432,0.991
		C292.261,476.245,291.802,476.358,291.171,476.358z M290.97,475.28c0.391,0,0.669-0.057,0.837-0.168
		c0.167-0.113,0.251-0.262,0.251-0.446c0-0.184-0.062-0.373-0.186-0.566c-0.124-0.191-0.285-0.377-0.483-0.554
		c-0.199-0.178-0.432-0.349-0.693-0.514c-0.263-0.164-0.534-0.312-0.812-0.444c-0.278-0.134-0.559-0.246-0.837-0.339
		c-0.278-0.092-0.533-0.161-0.765-0.211l-0.454-0.096c-0.04,0.127-0.074,0.272-0.102,0.435c-0.027,0.159-0.042,0.305-0.042,0.434
		c0,0.441,0.102,0.818,0.305,1.127c0.203,0.31,0.464,0.564,0.783,0.766c0.318,0.201,0.674,0.349,1.063,0.439
		C290.225,475.234,290.604,475.28,290.97,475.28z"/>
	<path fill="#0067B1" d="M286.902,478.236v-1.062l8.766,1.672v1.062L286.902,478.236z"/>
	<path fill="#0067B1" d="M286.902,481.284v-1.062l5.969,1.141v1.062L286.902,481.284z M294.803,482.956
		c-0.217,0-0.396-0.073-0.535-0.223c-0.142-0.147-0.21-0.318-0.21-0.512c0-0.209,0.063-0.375,0.191-0.5s0.285-0.188,0.47-0.188
		c0.216,0,0.395,0.074,0.534,0.224c0.141,0.148,0.21,0.323,0.21,0.524c0,0.2-0.065,0.363-0.198,0.488
		C295.134,482.894,294.979,482.956,294.803,482.956z"/>
	<path fill="#0067B1" d="M291.62,488.286c-1.299,0-1.997-1.293-2.093-3.877c-0.089-0.018-0.2-0.03-0.333-0.043
		c-0.133-0.012-0.256-0.018-0.369-0.018c-0.234,0-0.426,0.021-0.575,0.065c-0.148,0.043-0.268,0.115-0.356,0.218
		c-0.089,0.1-0.151,0.231-0.188,0.396c-0.036,0.166-0.054,0.369-0.054,0.609c0,0.281,0.031,0.565,0.092,0.854
		c0.062,0.289,0.146,0.562,0.251,0.82l-0.833,0.036c-0.119-0.304-0.211-0.628-0.273-0.972c-0.063-0.345-0.096-0.714-0.096-1.104
		c0-0.688,0.152-1.195,0.457-1.519s0.797-0.485,1.479-0.485c0.577,0,1.124,0.078,1.64,0.233c0.517,0.154,0.969,0.376,1.358,0.658
		c0.388,0.285,0.693,0.627,0.919,1.027c0.224,0.398,0.336,0.848,0.336,1.344c0,0.319-0.038,0.59-0.114,0.81
		c-0.076,0.221-0.176,0.399-0.301,0.541c-0.125,0.141-0.27,0.241-0.434,0.307C291.967,488.254,291.797,488.286,291.62,488.286z
		 M291.493,487.209c0.217,0,0.383-0.074,0.5-0.224c0.117-0.148,0.175-0.344,0.175-0.584s-0.048-0.459-0.145-0.656
		c-0.096-0.196-0.229-0.373-0.397-0.528c-0.168-0.156-0.364-0.291-0.59-0.403c-0.225-0.112-0.462-0.204-0.711-0.276
		c0.04,0.931,0.155,1.607,0.343,2.033C290.856,486.995,291.131,487.209,291.493,487.209z"/>
	<path fill="#0067B1" d="M289.063,493.862c-0.048-0.008-0.18-0.033-0.392-0.072c-0.212-0.04-0.439-0.084-0.685-0.127
		c-0.244-0.045-0.472-0.088-0.685-0.128s-0.347-0.064-0.402-0.072V492.4c0.256,0.049,0.583,0.129,0.982,0.242
		c0.4,0.113,0.881,0.262,1.439,0.447l0.012-0.023c-0.231-0.112-0.497-0.25-0.793-0.414c-0.296-0.162-0.575-0.359-0.835-0.592
		c-0.26-0.23-0.479-0.494-0.661-0.789c-0.18-0.295-0.27-0.621-0.27-0.98c0-0.431,0.144-0.76,0.432-0.985
		c0.289-0.229,0.749-0.342,1.382-0.342c0.554,0,1.093,0.071,1.616,0.217c0.524,0.143,0.991,0.369,1.399,0.676
		c0.409,0.307,0.736,0.696,0.984,1.168c0.248,0.471,0.373,1.029,0.373,1.676c0,0.152-0.006,0.291-0.02,0.419
		s-0.033,0.268-0.06,0.419l2.781,0.521v1.078L289.063,493.862z M292.075,492.977c0.021-0.14,0.03-0.294,0.03-0.462
		c0-0.449-0.104-0.829-0.312-1.142c-0.208-0.312-0.473-0.565-0.792-0.764c-0.319-0.195-0.676-0.34-1.068-0.432
		s-0.772-0.14-1.142-0.14c-0.392,0-0.672,0.058-0.84,0.168c-0.168,0.113-0.252,0.262-0.252,0.445c0,0.279,0.132,0.562,0.396,0.846
		c0.265,0.285,0.591,0.548,0.979,0.787c0.389,0.24,0.803,0.448,1.243,0.625c0.439,0.177,0.84,0.299,1.201,0.371l0.479,0.084
		C292.029,493.247,292.055,493.116,292.075,492.977z"/>
	<path fill="#0067B1" d="M294.022,502.782c0.072-0.198,0.122-0.399,0.149-0.601c0.028-0.201,0.042-0.376,0.042-0.528
		c0-0.305-0.04-0.565-0.119-0.782c-0.08-0.216-0.183-0.396-0.307-0.542c-0.125-0.144-0.267-0.25-0.427-0.317
		c-0.16-0.068-0.32-0.103-0.48-0.103c-0.249,0-0.459,0.062-0.631,0.188c-0.173,0.123-0.333,0.276-0.48,0.457
		c-0.148,0.182-0.292,0.381-0.433,0.598s-0.297,0.416-0.469,0.598c-0.172,0.181-0.373,0.333-0.601,0.457
		c-0.229,0.125-0.503,0.188-0.823,0.188c-0.376,0-0.728-0.078-1.052-0.234c-0.324-0.155-0.606-0.377-0.848-0.662
		c-0.24-0.284-0.429-0.622-0.564-1.016s-0.204-0.826-0.204-1.299c0-0.217,0.014-0.443,0.042-0.68
		c0.028-0.237,0.074-0.455,0.138-0.656l1.054,0.205c-0.071,0.17-0.134,0.364-0.187,0.586c-0.052,0.221-0.078,0.438-0.078,0.646
		c0,0.628,0.138,1.113,0.415,1.455s0.643,0.515,1.099,0.515c0.232,0,0.434-0.062,0.602-0.183s0.322-0.274,0.463-0.461
		c0.14-0.186,0.278-0.386,0.414-0.6c0.136-0.215,0.29-0.414,0.462-0.601c0.172-0.186,0.371-0.34,0.595-0.461
		c0.225-0.121,0.5-0.182,0.829-0.182c0.336,0,0.655,0.063,0.955,0.19c0.3,0.13,0.564,0.319,0.793,0.572
		c0.229,0.252,0.41,0.564,0.546,0.938c0.138,0.372,0.205,0.803,0.205,1.291c0,0.209-0.008,0.405-0.023,0.596
		c-0.017,0.188-0.049,0.397-0.096,0.631L294.022,502.782z"/>
	<path fill="#0067B1" d="M291.846,507.946c0.071-0.16,0.128-0.33,0.168-0.51s0.06-0.373,0.06-0.581c0-0.376-0.096-0.703-0.288-0.983
		c-0.19-0.278-0.436-0.51-0.729-0.692c-0.296-0.186-0.625-0.32-0.988-0.408s-0.713-0.132-1.048-0.132
		c-0.16,0-0.313,0.017-0.461,0.048s-0.281,0.094-0.401,0.186c-0.12,0.093-0.216,0.218-0.287,0.378
		c-0.072,0.159-0.107,0.37-0.107,0.635c0,0.229,0.022,0.461,0.07,0.688c0.047,0.229,0.114,0.435,0.2,0.617h-0.912
		c-0.088-0.217-0.162-0.463-0.222-0.74c-0.061-0.274-0.09-0.565-0.09-0.871c0-0.385,0.05-0.711,0.149-0.979
		c0.101-0.269,0.238-0.483,0.414-0.644c0.177-0.161,0.385-0.275,0.624-0.349c0.24-0.073,0.5-0.107,0.78-0.107
		c0.567,0,1.105,0.077,1.614,0.233s0.952,0.38,1.332,0.673s0.682,0.65,0.905,1.076c0.226,0.424,0.337,0.904,0.337,1.441
		c0,0.249-0.017,0.475-0.049,0.68c-0.031,0.205-0.075,0.398-0.132,0.583L291.846,507.946z"/>
	<path fill="#0067B1" d="M286.902,509.521v-1.062l5.969,1.142v1.062L286.902,509.521z M294.803,511.192
		c-0.217,0-0.396-0.074-0.535-0.223c-0.142-0.149-0.21-0.32-0.21-0.515c0-0.209,0.063-0.375,0.191-0.5
		c0.128-0.123,0.285-0.186,0.47-0.186c0.216,0,0.395,0.074,0.534,0.223c0.141,0.149,0.21,0.322,0.21,0.523s-0.065,0.363-0.198,0.488
		C295.134,511.131,294.979,511.192,294.803,511.192z"/>
	<path fill="#0067B1" d="M291.62,516.521c-1.299,0-1.997-1.292-2.093-3.877c-0.089-0.016-0.2-0.029-0.333-0.042
		s-0.256-0.019-0.369-0.019c-0.234,0-0.426,0.021-0.575,0.065c-0.148,0.045-0.268,0.117-0.356,0.217
		c-0.089,0.103-0.151,0.233-0.188,0.398c-0.036,0.164-0.054,0.367-0.054,0.608c0,0.281,0.031,0.566,0.092,0.855
		c0.062,0.289,0.146,0.562,0.251,0.819l-0.833,0.035c-0.119-0.305-0.211-0.629-0.273-0.973c-0.063-0.344-0.096-0.711-0.096-1.104
		c0-0.688,0.152-1.193,0.457-1.519c0.305-0.324,0.797-0.486,1.479-0.486c0.577,0,1.124,0.078,1.64,0.234
		c0.517,0.156,0.969,0.376,1.358,0.66c0.388,0.283,0.693,0.625,0.919,1.025c0.224,0.399,0.336,0.848,0.336,1.344
		c0,0.32-0.038,0.59-0.114,0.811s-0.176,0.4-0.301,0.539c-0.125,0.142-0.27,0.242-0.434,0.308
		C291.967,516.489,291.797,516.521,291.62,516.521z M291.493,515.442c0.217,0,0.383-0.074,0.5-0.223
		c0.117-0.149,0.175-0.342,0.175-0.584c0-0.24-0.048-0.459-0.145-0.655c-0.096-0.196-0.229-0.373-0.397-0.53
		c-0.169-0.155-0.364-0.29-0.59-0.401c-0.225-0.112-0.462-0.205-0.711-0.277c0.04,0.932,0.155,1.609,0.343,2.035
		C290.856,515.229,291.131,515.442,291.493,515.442z"/>
	<path fill="#0067B1" d="M286.902,521.995v-1.062l3.812,0.734c0.473,0.088,0.813,0.09,1.025,0.006s0.318-0.263,0.318-0.533
		c0-0.278-0.13-0.555-0.391-0.83c-0.26-0.275-0.581-0.533-0.965-0.771s-0.798-0.446-1.241-0.621c-0.443-0.176-0.85-0.299-1.217-0.37
		l-1.343-0.255v-1.062l3.111,0.604c0.048,0.01,0.144,0.027,0.287,0.056c0.145,0.028,0.316,0.061,0.517,0.098s0.411,0.074,0.63,0.115
		c0.221,0.041,0.429,0.078,0.625,0.115s0.366,0.067,0.51,0.098c0.146,0.027,0.24,0.046,0.289,0.055v1.048
		c-0.201-0.041-0.483-0.109-0.849-0.207c-0.365-0.097-0.869-0.25-1.511-0.459v0.022c0.312,0.146,0.616,0.312,0.917,0.498
		c0.3,0.188,0.562,0.396,0.792,0.629c0.228,0.23,0.41,0.482,0.551,0.754c0.14,0.272,0.21,0.563,0.21,0.875
		c0,0.552-0.183,0.925-0.545,1.119c-0.364,0.197-0.857,0.238-1.48,0.127L286.902,521.995z"/>
	<path fill="#0067B1" d="M291.846,528.418c0.071-0.16,0.128-0.33,0.168-0.511c0.04-0.18,0.06-0.373,0.06-0.58
		c0-0.376-0.096-0.703-0.288-0.981c-0.19-0.28-0.436-0.513-0.729-0.695c-0.296-0.184-0.625-0.32-0.988-0.408
		s-0.713-0.131-1.048-0.131c-0.16,0-0.313,0.016-0.461,0.047c-0.147,0.032-0.281,0.094-0.401,0.187
		c-0.12,0.092-0.216,0.218-0.287,0.377c-0.072,0.16-0.107,0.371-0.107,0.635c0,0.231,0.022,0.461,0.07,0.688
		c0.047,0.229,0.114,0.434,0.2,0.616h-0.912c-0.088-0.217-0.162-0.463-0.222-0.738c-0.061-0.276-0.09-0.567-0.09-0.872
		c0-0.386,0.05-0.711,0.149-0.979c0.101-0.27,0.238-0.482,0.414-0.644c0.177-0.161,0.385-0.276,0.624-0.35
		c0.24-0.072,0.5-0.106,0.78-0.106c0.567,0,1.105,0.078,1.614,0.233c0.509,0.156,0.952,0.381,1.332,0.672
		c0.38,0.294,0.682,0.652,0.905,1.076c0.226,0.426,0.337,0.906,0.337,1.443c0,0.248-0.017,0.475-0.049,0.678
		c-0.031,0.205-0.075,0.398-0.132,0.584L291.846,528.418z"/>
	<path fill="#0067B1" d="M291.62,533.944c-1.299,0-1.997-1.292-2.093-3.877c-0.089-0.016-0.2-0.029-0.333-0.042
		s-0.256-0.019-0.369-0.019c-0.234,0-0.426,0.021-0.575,0.065c-0.148,0.045-0.268,0.117-0.356,0.217
		c-0.089,0.103-0.151,0.233-0.188,0.398c-0.036,0.164-0.054,0.367-0.054,0.609c0,0.28,0.031,0.565,0.092,0.854
		c0.062,0.289,0.146,0.562,0.251,0.819l-0.833,0.036c-0.119-0.306-0.211-0.63-0.273-0.974c-0.063-0.344-0.096-0.711-0.096-1.104
		c0-0.688,0.152-1.193,0.457-1.519c0.305-0.323,0.797-0.485,1.479-0.485c0.577,0,1.124,0.077,1.64,0.233
		c0.517,0.156,0.969,0.376,1.358,0.66c0.388,0.283,0.693,0.625,0.919,1.025c0.224,0.399,0.336,0.848,0.336,1.344
		c0,0.32-0.038,0.59-0.114,0.811s-0.176,0.4-0.301,0.539c-0.125,0.142-0.27,0.242-0.434,0.308
		C291.967,533.913,291.797,533.944,291.62,533.944z M291.493,532.866c0.217,0,0.383-0.073,0.5-0.223s0.175-0.342,0.175-0.584
		c0-0.24-0.048-0.459-0.145-0.655c-0.096-0.195-0.229-0.373-0.397-0.53c-0.169-0.155-0.364-0.29-0.59-0.401
		c-0.225-0.112-0.462-0.205-0.711-0.277c0.04,0.933,0.155,1.609,0.343,2.035C290.856,532.653,291.131,532.866,291.493,532.866z"/>
	<path fill="#0067B1" d="M292.023,538.258c0.096-0.287,0.144-0.588,0.144-0.9c0-0.392-0.083-0.688-0.247-0.889
		c-0.164-0.199-0.375-0.299-0.631-0.299c-0.161,0-0.303,0.043-0.427,0.131c-0.125,0.088-0.243,0.201-0.355,0.336
		c-0.111,0.137-0.227,0.283-0.343,0.438c-0.116,0.156-0.242,0.302-0.378,0.438s-0.289,0.248-0.457,0.336s-0.365,0.133-0.589,0.133
		c-0.248,0-0.491-0.055-0.728-0.162c-0.236-0.108-0.445-0.271-0.625-0.488c-0.182-0.215-0.325-0.483-0.434-0.805
		c-0.107-0.32-0.163-0.692-0.163-1.117c0-0.399,0.026-0.741,0.078-1.021l0.98,0.192c-0.112,0.32-0.168,0.646-0.168,0.978
		c0,0.393,0.078,0.711,0.233,0.952c0.156,0.241,0.392,0.362,0.703,0.362c0.16,0,0.3-0.046,0.42-0.134
		c0.12-0.09,0.234-0.201,0.343-0.34c0.108-0.137,0.217-0.281,0.324-0.434c0.108-0.154,0.23-0.299,0.366-0.437
		c0.136-0.137,0.292-0.25,0.469-0.338c0.176-0.09,0.384-0.133,0.624-0.133c0.257,0,0.495,0.049,0.715,0.15
		c0.221,0.1,0.412,0.25,0.576,0.449c0.164,0.2,0.292,0.448,0.385,0.745s0.139,0.639,0.139,1.022c0,0.208-0.009,0.393-0.027,0.554
		c-0.018,0.16-0.04,0.316-0.066,0.469L292.023,538.258z"/>
</g>
</svg>
